<svg width="7" height="12" viewBox="0 0 7 12" fill="none" xmlns="http://www.w3.org/2000/svg">
<path d="M0.174316 6.3125C0.0826492 6.22083 0.0368159 6.11667 0.0368159 6C0.0368159 5.86667 0.103483 5.73333 0.236816 5.6L5.48682 0.275C5.55348 0.208333 5.62015 0.15 5.68682 0.0999992C5.74515 0.0499988 5.79932 0.0249987 5.84932 0.0249987C5.92432 0.0249987 6.00348 0.0666658 6.08682 0.15L6.58682 0.65C6.67848 0.741666 6.72432 0.829166 6.72432 0.912499C6.72432 1.02083 6.64932 1.15 6.49932 1.3L1.91182 6.0125L6.56182 10.7125C6.71182 10.8625 6.78682 10.9917 6.78682 11.1C6.78682 11.1833 6.75348 11.2583 6.68682 11.325L6.23682 11.7875C6.14515 11.8792 6.04098 11.925 5.92432 11.925C5.77432 11.925 5.64932 11.8625 5.54932 11.7375L0.174316 6.3125Z" fill="black" fill-opacity="0.7"/>
</svg>
