<svg width="31" height="23" viewBox="0 0 31 23" fill="none" xmlns="http://www.w3.org/2000/svg">
<path d="M31.0002 3.3002C25.2649 9.0502 19.5791 14.8502 13.8439 20.6502C13.1517 21.3502 12.4595 22.0502 11.7673 22.7502C11.4212 23.1002 11.2234 23.1002 10.8773 22.7502C7.36698 19.1502 3.80717 15.5502 0.247362 11.9502C-0.0987302 11.6002 -0.0987302 11.4002 0.247362 11.0502C1.03843 10.2502 1.8295 9.4502 2.62057 8.6502C2.96666 8.3002 3.16443 8.3002 3.51052 8.6502C6.03205 11.2002 8.55358 13.7502 11.0751 16.3002C11.174 16.4002 11.2234 16.5002 11.2729 16.6002C11.3718 16.5002 11.4706 16.4002 11.5695 16.3502C16.8598 11.0002 22.1006 5.7002 27.3909 0.350195C27.8359 -0.0998047 27.9842 -0.0998047 28.4292 0.350195C29.1708 1.1002 29.9124 1.8502 30.6541 2.6002C30.7529 2.7002 30.9013 2.8502 31.0002 3.0002C31.0002 3.1002 31.0002 3.2002 31.0002 3.3002Z" fill="#ED4043"/>
</svg>
