<svg width="15" height="15" viewBox="0 0 15 15" fill="none" xmlns="http://www.w3.org/2000/svg">
<path d="M7.5 15C3.4 15 0 11.6 0 7.5C0 3.4 3.4 0 7.5 0C11.6 0 15 3.4 15 7.5C15 11.6 11.6 15 7.5 15ZM13.7 7.5C13.7 4 10.9 1.3 7.4 1.3C4 1.3 1.3 4.1 1.3 7.5C1.3 11 4.1 13.8 7.6 13.8C11 13.7 13.8 10.9 13.7 7.5Z" fill="black"/>
<path d="M8.10005 6.9C9.20005 6.9 10.2 6.9 11.2 6.9C11.2 7.3 11.2 7.7 11.2 8.1C9.80005 8.1 8.30005 8.1 6.80005 8.1C6.80005 6.2 6.80005 4.4 6.80005 2.5C7.20005 2.5 7.60005 2.5 8.00005 2.5C8.10005 4 8.10005 5.4 8.10005 6.9Z" fill="black"/>
</svg>
