<svg width="15" height="15" viewBox="0 0 15 15" fill="none" xmlns="http://www.w3.org/2000/svg">
<path d="M1 13.69C1 10.21 1 6.73 1 3.28C1 3.25 1.03 3.25 1.03 3.22C1.18 2.62 1.6 2.29 2.2 2.29C2.74 2.29 3.28 2.29 3.85 2.29C3.91 2.29 3.94 2.29 4 2.29C4 1.99 4 1.72 4 1.45C4 1.21 4.15 1 4.42 1C4.63 1 4.84 1.18 4.84 1.45C4.84 1.63 4.84 1.81 4.84 1.99C4.84 2.11 4.84 2.17 4.84 2.29C5.71 2.29 6.55 2.29 7.42 2.29C7.42 1.99 7.42 1.72 7.42 1.45C7.45 1.15 7.63 1 7.84 1C8.05 1 8.26 1.18 8.26 1.42C8.26 1.48 8.26 1.54 8.26 1.57C8.26 1.78 8.26 2.02 8.26 2.26C9.13 2.26 9.97 2.26 10.84 2.26C10.84 1.96 10.84 1.69 10.84 1.42C10.87 1.21 11.05 1 11.29 1C11.53 1 11.71 1.18 11.71 1.45C11.71 1.66 11.71 1.93 11.71 2.14C11.71 2.2 11.71 2.26 11.71 2.29C12.31 2.29 12.88 2.29 13.45 2.29C14.23 2.29 14.68 2.77 14.68 3.52C14.68 6.82 14.68 10.15 14.68 13.45C14.68 13.51 14.68 13.57 14.68 13.6C14.65 14.08 14.32 14.5 13.87 14.65C13.81 14.68 13.75 14.68 13.72 14.71C9.82 14.71 5.92 14.71 2.02 14.71C1.99 14.71 1.96 14.68 1.9 14.68C1.63 14.62 1.39 14.47 1.24 14.23C1.12 14.05 1.09 13.84 1 13.69ZM11.71 3.13C11.71 3.43 11.71 3.7 11.71 3.97C11.71 4.21 11.53 4.42 11.26 4.42C10.99 4.42 10.84 4.24 10.84 3.97C10.84 3.7 10.84 3.49 10.84 3.25C10.84 3.19 10.84 3.16 10.84 3.13C9.97 3.13 9.13 3.13 8.26 3.13C8.26 3.28 8.26 3.4 8.26 3.58C8.26 3.73 8.26 3.85 8.26 4C8.26 4.33 7.93 4.54 7.63 4.39C7.48 4.3 7.42 4.18 7.42 4C7.42 3.73 7.42 3.46 7.42 3.19C6.55 3.19 5.71 3.19 4.84 3.19C4.84 3.46 4.84 3.73 4.84 4.03C4.84 4.27 4.66 4.48 4.39 4.48C4.15 4.48 3.97 4.3 3.97 4.03C3.97 3.88 3.97 3.7 3.97 3.55C3.97 3.43 3.97 3.31 3.97 3.19C3.37 3.19 2.8 3.19 2.23 3.19C1.93 3.19 1.84 3.28 1.84 3.58C1.84 6.88 1.84 10.21 1.84 13.48C1.84 13.78 1.93 13.87 2.23 13.87C5.95 13.87 9.7 13.87 13.42 13.87C13.72 13.87 13.81 13.78 13.81 13.48C13.81 10.21 13.81 6.94 13.81 3.7C13.81 3.28 13.72 3.19 13.33 3.22C12.79 3.13 12.25 3.13 11.71 3.13Z" fill="#C8C8C8"/>
<path d="M4.02979 6.13C4.59978 6.13 5.13978 6.13 5.73978 6.13C5.73978 6.55001 5.73978 6.97 5.73978 7.39001C5.19978 7.39001 4.62978 7.39001 4.02979 7.39001C4.02979 6.97 4.02979 6.55001 4.02979 6.13Z" fill="#C8C8C8"/>
<path d="M7 7.39001C7 6.94 7 6.55001 7 6.13C7.57 6.13 8.11 6.13 8.71 6.13C8.71 6.55001 8.71 6.94 8.71 7.39001C8.14 7.39001 7.57 7.39001 7 7.39001Z" fill="#C8C8C8"/>
<path d="M11.6802 7.39001C11.1102 7.39001 10.5702 7.39001 9.97021 7.39001C9.97021 6.97 9.97021 6.55001 9.97021 6.13C10.5102 6.13 11.0802 6.13 11.6802 6.13C11.6802 6.55001 11.6802 6.94 11.6802 7.39001Z" fill="#C8C8C8"/>
<path d="M5.71 8.26001C5.71 8.68001 5.71 9.10001 5.71 9.52001C5.14 9.52001 4.6 9.52001 4 9.52001C4 9.10001 4 8.71001 4 8.26001C4.57 8.26001 5.14 8.26001 5.71 8.26001Z" fill="#C8C8C8"/>
<path d="M8.71 9.52001C8.14 9.52001 7.6 9.52001 7 9.52001C7 9.10001 7 8.68001 7 8.26001C7.57 8.26001 8.11 8.26001 8.71 8.26001C8.71 8.68001 8.71 9.07001 8.71 9.52001Z" fill="#C8C8C8"/>
<path d="M11.6802 8.26001C11.6802 8.68001 11.6802 9.10001 11.6802 9.52001C11.1102 9.52001 10.5702 9.52001 9.97021 9.52001C9.97021 9.10001 9.97021 8.71001 9.97021 8.26001C10.5702 8.26001 11.1102 8.26001 11.6802 8.26001Z" fill="#C8C8C8"/>
<path d="M5.71 10.39C5.71 10.81 5.71 11.23 5.71 11.65C5.14 11.65 4.6 11.65 4 11.65C4 11.23 4 10.84 4 10.39C4.57 10.39 5.14 10.39 5.71 10.39Z" fill="#C8C8C8"/>
<path d="M7 11.65C7 11.23 7 10.81 7 10.39C7.57 10.39 8.11 10.39 8.71 10.39C8.71 10.81 8.71 11.2 8.71 11.65C8.14 11.65 7.57 11.65 7 11.65Z" fill="#C8C8C8"/>
<path d="M11.6802 10.39C11.6802 10.81 11.6802 11.23 11.6802 11.65C11.1102 11.65 10.5702 11.65 9.97021 11.65C9.97021 11.23 9.97021 10.84 9.97021 10.39C10.5702 10.39 11.1402 10.39 11.6802 10.39Z" fill="#C8C8C8"/>
</svg>
