<svg width="10" height="13" viewBox="0 0 10 13" fill="none" xmlns="http://www.w3.org/2000/svg">
<path d="M5.12787 0C5.1904 0.0337516 5.25862 0.061878 5.31548 0.101255C5.50877 0.230636 5.55993 0.427521 5.55993 0.646906C5.55993 2.24448 5.55993 3.84769 5.55993 5.44526C5.55993 6.01904 5.55993 6.58719 5.55993 7.16097C5.55993 7.20597 5.55993 7.25097 5.55993 7.3241C5.59973 7.29035 5.62247 7.26785 5.64521 7.24535C5.74185 7.13284 5.83281 7.01471 5.93515 6.90783C6.15118 6.6772 6.47523 6.65469 6.70831 6.84595C6.9414 7.03721 6.97551 7.36348 6.78222 7.61099C6.61735 7.81913 6.43543 8.02164 6.26488 8.22414C5.99768 8.53916 5.73048 8.85418 5.46329 9.16919C5.1904 9.48983 4.81519 9.48983 4.54231 9.16919C4.11024 8.66292 3.68387 8.16227 3.25749 7.65037C3.05283 7.40848 3.05283 7.11034 3.24612 6.90221C3.43372 6.6997 3.7464 6.66032 3.96812 6.81783C4.04202 6.86845 4.09887 6.94158 4.15573 7.00346C4.24669 7.10472 4.33196 7.20597 4.44566 7.3016C4.44566 7.25097 4.44566 7.20597 4.44566 7.15534C4.44566 5.01212 4.45135 2.87451 4.43998 0.731285C4.43998 0.388144 4.53094 0.129381 4.87204 0C4.95732 0 5.04259 0 5.12787 0Z" fill="white"/>
<path d="M8.87436 4.21333C8.45935 4.21333 8.05003 4.21333 7.64639 4.21333C7.40762 4.21333 7.16885 4.21895 6.93007 4.2077C6.64014 4.19645 6.42979 3.98832 6.40136 3.70143C6.37862 3.44829 6.54917 3.20641 6.79932 3.1389C6.85617 3.12203 6.9187 3.1164 6.97555 3.1164C7.61228 3.1164 8.249 3.11078 8.88573 3.1164C9.43149 3.12203 9.82376 3.42017 9.95452 3.92644C9.98294 4.03332 9.99431 4.15145 9.99431 4.26396C9.99431 6.7897 9.99431 9.31545 9.99431 11.8412C9.99431 12.4093 9.70438 12.8087 9.18704 12.955C9.07902 12.9831 8.95964 12.9944 8.84593 12.9944C6.28198 12.9944 3.71234 12.9944 1.14838 12.9944C0.58556 12.9944 0.176236 12.6962 0.0397953 12.1787C0.0113701 12.0718 0 11.9537 0 11.8412C0 9.31545 0 6.7897 0 4.26396C0 3.70143 0.295622 3.29641 0.807277 3.15015C0.898238 3.12203 1.00057 3.1164 1.09721 3.1164C1.75668 3.11078 2.41615 3.11078 3.07561 3.1164C3.49062 3.12203 3.75213 3.49329 3.61001 3.85894C3.52473 4.07832 3.32007 4.21333 3.05287 4.21333C2.45594 4.21333 1.8647 4.21333 1.26777 4.21333C1.22229 4.21333 1.1768 4.21333 1.11995 4.21333C1.11995 6.77845 1.11995 9.33233 1.11995 11.8974C3.70097 11.8974 6.28198 11.8974 8.86867 11.8974C8.87436 9.33795 8.87436 6.78408 8.87436 4.21333Z" fill="white"/>
</svg>
