<svg width="8" height="18" viewBox="0 0 8 18" fill="none" xmlns="http://www.w3.org/2000/svg">
<g clip-path="url(#clip0)">
<path d="M5.27803 17.9999C4.06914 17.9999 2.89185 17.9999 1.69481 17.9999C1.69481 15.0034 1.69481 12.0192 1.69481 9.00198C1.11802 9.00198 0.564938 9.00198 0 9.00198C0 7.92735 0 6.88579 0 5.81943C0.560988 5.81943 1.11012 5.81943 1.69086 5.81943C1.69086 5.72024 1.69086 5.63757 1.69086 5.55904C1.69877 4.81507 1.66716 4.06696 1.72247 3.32712C1.80938 2.1285 2.2637 1.12001 3.29086 0.475229C3.76099 0.181773 4.28247 0.016446 4.82765 0.00404644C5.85877 -0.0166195 6.89383 -8.67434e-05 7.94074 -8.67434e-05C7.94074 1.01254 7.94074 2.02517 7.94074 3.075C7.87753 3.075 7.81037 3.075 7.73926 3.075C7.17827 3.075 6.62123 3.075 6.06025 3.075C5.59407 3.07913 5.29383 3.33952 5.27803 3.81897C5.25432 4.47202 5.27407 5.12506 5.27407 5.80703C6.17877 5.80703 7.07556 5.80703 8 5.80703C7.89333 6.88166 7.79062 7.92322 7.6879 8.99372C6.88198 8.99372 6.09185 8.99372 5.27803 8.99372C5.27803 12.0068 5.27803 14.991 5.27803 17.9999Z" fill="#A9ACB0"/>
</g>
<defs>
<clipPath id="clip0">
<rect width="8" height="18" fill="white"/>
</clipPath>
</defs>
</svg>
