<svg width="18" height="17" viewBox="0 0 18 17" fill="none" xmlns="http://www.w3.org/2000/svg">
<g clip-path="url(#clip0)">
<path d="M14 17C15.3 17 16.5999 17 17.7999 17V16.9C17.7999 14.7 17.7999 12.6 17.7999 10.4C17.7999 9.50004 17.6999 8.60004 17.2999 7.70004C16.7999 6.60004 16.1 5.80004 14.9 5.50004C14.2 5.20004 13.4 5.20004 12.6 5.30004C11.8 5.40004 11 5.80004 10.5 6.40004C10.3 6.60004 10.1 6.90004 9.89995 7.10004C9.89995 6.60004 9.89995 6.10004 9.89995 5.50004C8.59995 5.50004 7.39995 5.50004 6.09995 5.50004C6.09995 9.30004 6.09995 13.1 6.09995 17C7.39995 17 8.59995 17 9.89995 17C9.89995 16.9 9.89995 16.9 9.89995 16.8C9.89995 14.8 9.89995 12.8 9.89995 10.7C9.89995 10.4 9.89995 10.1 9.99995 9.80004C10.2 9.00004 10.9 8.30004 11.9 8.20004C12.8 8.10004 13.5 8.50004 13.8 9.40004C13.9 9.80004 14 10.2 14 10.6C14 12.6 14 14.7 14 16.7C14 16.9 14 16.9 14 17ZM0.199951 5.50004C0.199951 9.30004 0.199951 13.1 0.199951 17C1.49995 17 2.69995 17 3.99995 17C3.99995 13.2 3.99995 9.40004 3.99995 5.50004C2.79995 5.50004 1.49995 5.50004 0.199951 5.50004Z" fill="white"/>
<path d="M0 1.7C0.1 1.4 0.2 1.1 0.4 0.8C0.9 0.2 1.6 0 2.4 0C3 0.1 3.6 0.3 4 0.9C4.8 2.2 4 3.8 2.4 4C1.8 4 1.3 4 0.8 3.6C0.4 3.3 0.1 2.9 0 2.4V2.3C0 2.1 0 1.9 0 1.7Z" fill="#A9ACB0"/>
<path d="M14 17C14 16.9 14 16.9 14 16.8C14 14.8 14 12.7 14 10.7C14 10.3 13.9 9.90004 13.8 9.50004C13.5 8.60004 12.8 8.20004 11.9 8.30004C10.9 8.40004 10.2 9.10004 9.99995 9.90004C9.99995 10.1 9.99995 10.4 9.99995 10.7C9.99995 12.7 9.99995 14.7 9.99995 16.8C9.99995 16.9 9.99995 16.9 9.99995 17C8.69995 17 7.49995 17 6.19995 17C6.19995 13.2 6.19995 9.40004 6.19995 5.50004C7.49995 5.50004 8.69995 5.50004 9.99995 5.50004C9.99995 6.00004 9.99995 6.50004 9.99995 7.10004C10.2 6.80004 10.4 6.60004 10.6 6.40004C11.2 5.80004 11.9 5.40004 12.7 5.30004C13.5 5.20004 14.2 5.20004 15 5.50004C16.1 5.90004 16.9 6.70004 17.4 7.70004C17.8 8.60004 17.9 9.50004 17.9 10.4C17.9 12.6 17.9 14.7 17.9 16.9V17C16.5 17 15.3 17 14 17Z" fill="#A9ACB0"/>
<path d="M0.199951 5.5C1.49995 5.5 2.69995 5.5 3.99995 5.5C3.99995 9.4 3.99995 13.2 3.99995 17C2.69995 17 1.49995 17 0.199951 17C0.199951 13.2 0.199951 9.4 0.199951 5.5Z" fill="#A9ACB0"/>
</g>
<defs>
<clipPath id="clip0">
<rect width="17.8" height="17" fill="white"/>
</clipPath>
</defs>
</svg>
