<svg width="230" height="27" viewBox="0 0 230 27" fill="none" xmlns="http://www.w3.org/2000/svg">
<path d="M16.8495 3.74647C16.7851 3.79092 16.7271 3.83537 16.6627 3.88617C16.5468 3.97507 16.4308 4.06397 16.3213 4.15922C16.199 4.26717 16.0895 4.38147 15.98 4.48942C15.9735 4.49577 15.9735 4.50212 15.9606 4.52752C16.0766 4.46402 16.1796 4.39417 16.2891 4.34972C16.5468 4.24177 16.798 4.13382 17.062 4.04492C17.2939 3.96872 17.5387 3.93062 17.777 3.87982C17.88 3.86077 17.9895 3.85442 18.099 3.84807C18.3889 3.84172 18.6787 3.82267 18.9686 3.83537C19.1618 3.84172 19.355 3.87347 19.5418 3.89887C19.69 3.91792 19.8381 3.94332 19.9862 3.96872C20.1215 3.99412 20.2568 4.03222 20.3985 4.07032C20.4951 4.09572 20.5917 4.12112 20.6819 4.15287C20.8944 4.22272 21.1005 4.28622 21.3066 4.36877C21.545 4.46402 21.7833 4.55927 22.0151 4.67356C22.2921 4.80691 22.5626 4.95296 22.8396 5.10536C23.0457 5.21966 23.2582 5.33396 23.4579 5.46096C23.664 5.59431 23.8637 5.74036 24.0569 5.8864C24.2437 6.0261 24.4305 6.1658 24.6366 6.32455C24.5915 6.32455 24.5658 6.32455 24.5464 6.32455C24.4885 6.3182 24.4241 6.3055 24.3661 6.29915C24.2437 6.2928 24.1213 6.2801 23.999 6.2801C23.7928 6.2801 23.5867 6.28645 23.3806 6.29915C23.2067 6.31185 23.0393 6.3436 22.8653 6.369C22.7043 6.3944 22.5433 6.41345 22.3823 6.43885C22.2341 6.4706 22.086 6.5087 21.9378 6.5468C21.7704 6.59125 21.6029 6.6357 21.4355 6.69285C21.1714 6.7881 20.9073 6.88335 20.669 7.0294C20.553 7.09925 20.4242 7.15005 20.3212 7.23259C20.1601 7.35959 20.0056 7.49294 19.8703 7.63899C19.6835 7.84219 19.5225 8.07079 19.4452 8.33749C19.413 8.45814 19.3744 8.57878 19.355 8.70578C19.3293 8.82643 19.3035 8.95978 19.3099 9.08043C19.3228 9.27728 19.3421 9.48048 19.3937 9.67733C19.471 9.98847 19.5676 10.2869 19.7222 10.5663C19.7995 10.706 19.8832 10.8457 19.9798 10.9791C20.0957 11.1378 20.2181 11.2902 20.3469 11.4363C20.5273 11.6395 20.7205 11.8363 20.9009 12.0332C21.0619 12.2046 21.2229 12.3824 21.371 12.5666C21.4934 12.7253 21.6029 12.8904 21.7124 13.0618C21.8477 13.2777 21.9765 13.4936 22.086 13.7222C22.1697 13.8873 22.2341 14.0715 22.2985 14.2493C22.363 14.4334 22.4145 14.6239 22.466 14.8144C22.4918 14.9224 22.5047 15.0367 22.5175 15.1446C22.5304 15.3478 22.5433 15.551 22.5433 15.7542C22.5433 15.8876 22.5369 16.0273 22.5111 16.1606C22.4467 16.5035 22.3372 16.8401 22.1697 17.1512C21.9958 17.4751 21.7575 17.7481 21.4805 17.9831C21.2615 18.1736 21.0168 18.3196 20.7398 18.4276C20.5273 18.5101 20.3147 18.58 20.0893 18.6117C19.954 18.6308 19.8252 18.6435 19.69 18.6562C19.5933 18.6689 19.4903 18.6816 19.3937 18.6752C19.2004 18.6689 19.0072 18.6625 18.814 18.6308C18.5886 18.599 18.3631 18.5546 18.1506 18.4911C17.88 18.4149 17.616 18.3196 17.3583 18.218C17.0878 18.1101 16.8173 17.9894 16.5597 17.8434C16.2505 17.6719 15.9542 17.4751 15.6515 17.2782C15.4905 17.1766 15.3423 17.0623 15.1877 16.9417C15.104 16.8782 15.0331 16.8083 14.9559 16.7321C14.7562 16.5416 14.5501 16.3575 14.3568 16.1543C14.2216 16.0209 14.0992 15.8685 13.9833 15.7225C13.8351 15.532 13.6934 15.3351 13.5582 15.1383C13.5002 15.0557 13.4551 14.9605 13.41 14.8652C14.0606 15.297 14.7111 15.7098 15.542 15.786C15.426 15.7288 15.323 15.6844 15.2328 15.6272C15.0396 15.5193 14.8399 15.4177 14.6596 15.2843C14.4084 15.1002 14.1701 14.9033 13.9446 14.6938C13.7836 14.5477 13.6419 14.3763 13.4938 14.2112C13.3843 14.0842 13.2748 13.9572 13.1717 13.8238C13.0558 13.6651 12.9398 13.5063 12.8432 13.3349C12.6758 13.0491 12.5147 12.7634 12.3666 12.4713C12.2829 12.3062 12.2249 12.1284 12.1605 11.9506C12.109 11.7919 12.0639 11.6268 12.0188 11.4617C11.993 11.3664 11.9673 11.2712 11.9479 11.1759C11.9415 11.1442 11.9479 11.1061 11.9544 11.068C12.4181 11.8109 12.9914 12.4332 13.8029 12.8206C13.7772 12.7888 13.7514 12.7571 13.7256 12.7253C13.4809 12.4396 13.249 12.1475 13.0493 11.83C12.9205 11.6204 12.7853 11.4172 12.6629 11.2077C12.5727 11.0553 12.5019 10.8902 12.431 10.7314C12.373 10.6108 12.3215 10.4901 12.27 10.3631C12.212 10.2107 12.1605 10.052 12.109 9.89957C12.0703 9.77892 12.0252 9.65193 11.993 9.53128C11.9608 9.42333 11.9415 9.30903 11.9222 9.19473C11.8964 9.06138 11.8706 8.92803 11.8513 8.79468C11.8384 8.70578 11.8256 8.61053 11.8256 8.51529C11.8256 8.23589 11.8191 7.95014 11.8256 7.67074C11.832 7.48024 11.8642 7.28974 11.89 7.09925C11.9028 6.99765 11.9222 6.89605 11.9415 6.79445C11.9479 6.79445 11.9544 6.79445 11.9608 6.79445C11.993 6.8897 12.0317 6.9786 12.0574 7.07385C12.1025 7.21989 12.1798 7.35959 12.2764 7.47389C12.3279 7.53104 12.4117 7.58819 12.489 7.56914C12.5985 7.54374 12.6951 7.48024 12.7337 7.35959C12.8046 7.1183 12.8625 6.87065 12.9527 6.64205C13.0429 6.4071 13.1653 6.1785 13.2877 5.9499C13.3714 5.79751 13.468 5.64511 13.5775 5.50541C13.7192 5.32761 13.8802 5.15616 14.0412 4.99741C14.228 4.81961 14.4341 4.66721 14.6531 4.52117C14.8979 4.35607 15.162 4.21637 15.4325 4.09572C15.6257 4.00682 15.8318 3.94332 16.0379 3.87982C16.244 3.81632 16.463 3.77822 16.6756 3.72742C16.682 3.72742 16.682 3.71472 16.6885 3.71472C16.7593 3.74647 16.8044 3.74647 16.8495 3.74647Z" fill="white"/>
<path d="M18.8076 19.3292C18.9364 19.3419 19.0523 19.361 19.1618 19.361C19.4323 19.361 19.6964 19.3673 19.9669 19.3546C20.1795 19.3419 20.3856 19.3165 20.5981 19.2911C20.7785 19.2657 20.9524 19.2403 21.1327 19.1959C21.3646 19.1387 21.5965 19.0752 21.8284 19.0117C22.2084 18.8974 22.5691 18.745 22.904 18.5418C23.1359 18.4021 23.3549 18.2434 23.5417 18.0402C23.7671 17.7925 23.9346 17.5195 24.0247 17.202C24.0891 16.9861 24.1278 16.7638 24.1149 16.5352C24.1085 16.3828 24.0827 16.2241 24.0505 16.0781C24.0054 15.8749 23.9539 15.6717 23.883 15.4748C23.8057 15.2526 23.7091 15.0303 23.561 14.8335C23.4644 14.7128 23.3871 14.5795 23.2905 14.4525C23.2132 14.3509 23.1294 14.2556 23.0393 14.1604C22.8911 14.0016 22.7365 13.8492 22.5884 13.6905C22.4338 13.5317 22.2728 13.373 22.1375 13.2015C21.9572 12.9729 21.7962 12.7253 21.6351 12.484C21.5256 12.3189 21.4226 12.1474 21.3389 11.9696C21.2487 11.7791 21.1714 11.5823 21.1005 11.3854C21.0361 11.214 20.9782 11.0425 20.9395 10.8711C20.9009 10.7187 20.9009 10.5536 20.8622 10.4012C20.8171 10.1916 20.8429 9.9821 20.8365 9.7662C20.83 9.55665 20.8751 9.3598 20.9202 9.15661C20.9717 8.92166 21.0748 8.70576 21.1907 8.50256C21.3324 8.24856 21.5385 8.03901 21.764 7.84852C21.9443 7.70247 22.144 7.58817 22.3501 7.49292C22.4725 7.43577 22.6077 7.41037 22.7365 7.37227C23.1101 7.26432 23.4901 7.26432 23.8766 7.27702C24.0247 7.28337 24.1729 7.31512 24.321 7.34052C24.4756 7.36592 24.6366 7.39767 24.7848 7.43577C24.9136 7.46752 25.0424 7.51832 25.1712 7.56277C25.3709 7.64532 25.5706 7.72152 25.7638 7.81677C25.9635 7.91837 26.1502 8.02632 26.337 8.14696C26.5109 8.25491 26.6784 8.37556 26.8459 8.48986C26.891 8.52161 26.936 8.55971 26.9811 8.59781C27.1486 8.75656 27.3225 8.90896 27.49 9.07406C27.6317 9.21376 27.7734 9.36615 27.9086 9.51855C28.0374 9.6646 28.1469 9.8297 28.2693 9.9821C28.3981 10.1472 28.5398 10.3059 28.6687 10.4774C28.8039 10.6488 28.9327 10.8203 29.0551 10.9981C29.1582 11.1505 29.2612 11.3029 29.3578 11.4553C29.4545 11.6077 29.5382 11.7601 29.6284 11.9125C29.7379 12.103 29.8409 12.2935 29.9375 12.4903C30.0277 12.6808 30.1114 12.8713 30.1887 13.0618C30.2596 13.2269 30.3369 13.3857 30.4013 13.5508C30.4721 13.7413 30.5301 13.9381 30.5945 14.135C30.6332 14.2556 30.6782 14.3826 30.7104 14.5096C30.7426 14.6176 30.762 14.7319 30.7813 14.8462C30.8006 14.9351 30.8135 15.0176 30.8328 15.1065C30.8457 15.17 30.865 15.2272 30.8715 15.2907C30.8908 15.424 30.9037 15.5637 30.923 15.6971C30.9938 16.0844 30.9681 16.4781 30.9616 16.8718C30.9616 17.1067 30.923 17.3353 30.8972 17.5703C30.8844 17.6719 30.8715 17.7735 30.8521 17.8751C30.8264 18.0021 30.7942 18.1227 30.7684 18.2497C30.6718 18.6498 30.5172 19.0244 30.324 19.38C30.2403 19.5388 30.1436 19.6912 30.0406 19.8436C29.8345 20.1357 29.6026 20.4151 29.3321 20.6564C29.1131 20.8532 28.8812 21.0374 28.6236 21.1771C28.4561 21.266 28.2951 21.3739 28.1276 21.4565C27.9602 21.539 27.7798 21.6025 27.6059 21.6597C27.4384 21.7168 27.2645 21.774 27.0906 21.8184C26.9811 21.8502 26.8716 21.8692 26.7621 21.8883C26.6204 21.9137 26.4787 21.9454 26.337 21.9645C26.234 21.9772 26.1245 21.9835 26.015 21.9899C25.6801 21.9899 25.3387 21.9962 25.0038 21.9899C24.817 21.9835 24.6237 21.9518 24.437 21.9264C24.321 21.9137 24.2051 21.901 24.0891 21.8756C23.9732 21.8565 23.8637 21.8248 23.7542 21.8057C23.6512 21.7803 23.5417 21.7676 23.4386 21.7422C23.2518 21.6978 23.0715 21.647 22.8847 21.5962C22.6786 21.5327 22.4789 21.4692 22.2792 21.393C22.0345 21.2977 21.7897 21.1961 21.5514 21.0818C21.2487 20.9358 20.946 20.7897 20.6497 20.6246C20.3792 20.4722 20.1151 20.3008 19.8574 20.1293C19.6835 20.0214 19.5161 19.9071 19.3486 19.7864C19.2198 19.6912 19.0974 19.5896 18.9686 19.488C18.9171 19.4499 18.8655 19.4118 18.814 19.3737C18.8269 19.361 18.8204 19.3483 18.8076 19.3292Z" fill="white"/>
<path d="M47.7662 18.307C47.5536 18.5165 47.3024 18.6181 46.9997 18.6181C46.697 18.6181 46.4458 18.5165 46.2332 18.307C46.0207 18.0974 45.9176 17.8498 45.9176 17.5513V14.8399C45.3444 14.8399 44.7904 14.7637 44.2494 14.6177C43.7084 14.4716 43.1415 14.2367 42.549 13.9192C41.9564 13.6017 41.3188 13.1889 40.6425 12.6873C39.9662 12.1856 39.2061 11.5697 38.3624 10.8458C38.24 10.7442 38.1434 10.6172 38.0596 10.4648C37.9759 10.3187 37.9373 10.16 37.9373 9.99489C37.9373 9.69645 38.0403 9.4488 38.2529 9.23925C38.4654 9.0297 38.7166 8.9281 39.0193 8.9281C39.1675 8.9281 39.3027 8.95985 39.4251 9.017C39.5475 9.07415 39.6634 9.15035 39.7858 9.23925C40.7455 10.0711 41.5571 10.7188 42.2076 11.1823C42.8581 11.6522 43.4443 11.9951 43.966 12.2174C44.4877 12.4396 44.9772 12.5793 45.441 12.6301C45.9047 12.6809 46.4329 12.7063 47.019 12.7063C47.6051 12.7063 48.1268 12.6809 48.5777 12.6365C49.0286 12.592 49.5116 12.4587 50.0205 12.2364C50.5293 12.0142 51.1154 11.6713 51.766 11.2014C52.4165 10.7315 53.2345 10.0774 54.2135 9.2329C54.4712 9.02335 54.7224 8.92175 54.98 8.92175C55.2827 8.92175 55.5339 9.02335 55.7465 9.2329C55.959 9.44245 56.0621 9.6901 56.0621 9.98854C56.0621 10.1536 56.0235 10.306 55.9397 10.4584C55.856 10.6045 55.7529 10.7315 55.637 10.8394C54.8126 11.5506 54.0525 12.1602 53.3569 12.6746C52.6677 13.1826 52.0172 13.6017 51.4053 13.9192C50.7934 14.2367 50.2202 14.4716 49.6662 14.6177C49.1188 14.7637 48.5906 14.8399 48.0753 14.8399V17.5513C48.0818 17.8498 47.9723 18.1038 47.7662 18.307Z" fill="white"/>
<path d="M57.975 18.218C57.7496 18.4847 57.4726 18.618 57.1377 18.618C56.835 18.618 56.5838 18.5164 56.3712 18.3069C56.1587 18.0973 56.0556 17.8497 56.0556 17.5513C56.0556 17.2846 56.1329 17.0687 56.281 16.9036L61.7558 9.63921C62.0135 9.29631 62.3484 9.02327 62.7735 8.80737C63.1922 8.59147 63.643 8.48352 64.1261 8.48352C64.577 8.48352 65.0085 8.57877 65.4143 8.76927C65.8201 8.95977 66.1486 9.22646 66.4062 9.56936L71.8875 16.7893C71.9776 16.8909 72.0549 17.0052 72.1129 17.1322C72.1709 17.2592 72.2031 17.3925 72.2031 17.5449C72.2031 17.8434 72.1 18.091 71.8875 18.3005C71.6749 18.5101 71.4237 18.6117 71.121 18.6117C70.7603 18.6117 70.4769 18.472 70.2643 18.1862L65.015 11.2775C64.9119 11.1569 64.7766 11.0299 64.6221 10.8902C64.461 10.7505 64.3 10.6806 64.139 10.6806C63.9715 10.6806 63.8105 10.7505 63.6559 10.8902C63.5013 11.0299 63.3725 11.1632 63.2823 11.2775L57.975 18.218Z" fill="white"/>
<path d="M91.79 18.3069C91.5775 18.5164 91.3263 18.618 91.0236 18.618C90.7208 18.618 90.4696 18.5164 90.2571 18.3069C90.0445 18.0973 89.9415 17.8497 89.9415 17.5512V14.8398H76.6151V17.5512C76.6151 17.8497 76.5121 18.0973 76.2995 18.3069C76.087 18.5164 75.8358 18.618 75.5331 18.618C75.2303 18.618 74.9791 18.5164 74.7666 18.3069C74.554 18.0973 74.451 17.8497 74.451 17.5512V9.99477C74.451 9.69632 74.554 9.44867 74.7666 9.23913C74.9791 9.02958 75.2303 8.92798 75.5331 8.92798C75.8358 8.92798 76.087 9.02958 76.2995 9.23913C76.5121 9.44867 76.6151 9.69632 76.6151 9.99477V12.7062H89.9415V9.99477C89.9415 9.69632 90.0445 9.44867 90.2571 9.23913C90.4696 9.02958 90.7208 8.92798 91.0236 8.92798C91.3263 8.92798 91.5775 9.02958 91.79 9.23913C92.0026 9.44867 92.1056 9.69632 92.1056 9.99477V17.5512C92.1056 17.8497 92.0026 18.1037 91.79 18.3069Z" fill="white"/>
<path d="M111.718 9.23913C111.931 9.44867 112.034 9.69632 112.034 9.99477C112.034 10.2932 111.931 10.5409 111.718 10.7504C111.506 10.96 111.255 11.0616 110.952 11.0616H104.279V17.5512C104.279 17.8497 104.176 18.0973 103.963 18.3069C103.751 18.5164 103.5 18.618 103.197 18.618C102.894 18.618 102.643 18.5164 102.431 18.3069C102.218 18.0973 102.115 17.8497 102.115 17.5512V11.0616H95.3519C95.0814 11.0298 94.8495 10.9155 94.6498 10.7187C94.4566 10.5218 94.36 10.2805 94.36 9.99477C94.36 9.69632 94.463 9.44867 94.6756 9.23913C94.8881 9.02958 95.1393 8.92798 95.4421 8.92798H110.952C111.255 8.92798 111.506 9.03593 111.718 9.23913Z" fill="white"/>
<path d="M114.288 9.99477C114.288 9.69632 114.391 9.44867 114.604 9.23913C114.816 9.02958 115.068 8.92798 115.37 8.92798H131.357C131.66 8.92798 131.911 9.02958 132.123 9.23913C132.336 9.44867 132.439 9.69632 132.439 9.99477C132.439 10.2932 132.336 10.5409 132.123 10.7504C131.911 10.96 131.66 11.0616 131.357 11.0616H115.37C115.068 11.0616 114.816 10.96 114.604 10.7504C114.391 10.5472 114.288 10.2932 114.288 9.99477ZM117.039 18.618C116.71 18.618 116.375 18.5482 116.047 18.4085C115.718 18.2688 115.422 18.0719 115.171 17.8179C114.913 17.5639 114.707 17.2591 114.539 16.9035C114.372 16.5479 114.295 16.1479 114.295 15.7034V13.7031C114.295 13.3031 114.411 13.0364 114.643 12.903C114.874 12.7697 115.242 12.7062 115.737 12.7062H130.861C131.164 12.7062 131.415 12.8078 131.627 13.0173C131.84 13.2269 131.943 13.4745 131.943 13.773C131.943 14.0714 131.84 14.3191 131.627 14.5286C131.415 14.7382 131.164 14.8398 130.861 14.8398H116.452V15.932C116.452 16.078 116.517 16.2114 116.646 16.3193C116.774 16.4336 116.942 16.4844 117.154 16.4844H131.357C131.66 16.4844 131.911 16.586 132.123 16.7956C132.336 17.0051 132.439 17.2528 132.439 17.5512C132.439 17.8497 132.336 18.0973 132.123 18.3069C131.911 18.5164 131.66 18.618 131.357 18.618H117.039V18.618Z" fill="white"/>
<path d="M134.687 13.773C134.687 13.2078 134.783 12.6427 134.97 12.0712C135.157 11.4997 135.434 10.9854 135.795 10.5155C136.155 10.0456 136.593 9.66457 137.102 9.37248C137.611 9.07403 138.191 8.92798 138.841 8.92798H151.981C152.283 8.92798 152.535 9.02958 152.747 9.23913C152.96 9.44867 153.063 9.69632 153.063 9.99477C153.063 10.2932 152.96 10.5409 152.747 10.7504C152.535 10.96 152.283 11.0616 151.981 11.0616H139.311C138.783 11.0616 138.358 11.1568 138.036 11.341C137.714 11.5251 137.456 11.7537 137.27 12.0204C137.083 12.2871 136.954 12.5792 136.883 12.8967C136.819 13.2142 136.78 13.5063 136.78 13.773C136.78 14.0397 136.812 14.3318 136.883 14.6493C136.948 14.9668 137.076 15.2589 137.27 15.5256C137.456 15.7923 137.714 16.0209 138.036 16.205C138.358 16.3892 138.783 16.4844 139.311 16.4844H151.981C152.283 16.4844 152.535 16.586 152.747 16.7956C152.96 17.0051 153.063 17.2528 153.063 17.5512C153.063 17.8497 152.96 18.0973 152.747 18.3069C152.535 18.5164 152.283 18.618 151.981 18.618H138.609C137.991 18.618 137.443 18.472 136.96 18.1735C136.477 17.8751 136.072 17.4941 135.73 17.0305C135.395 16.567 135.131 16.0399 134.951 15.4621C134.777 14.8842 134.687 14.3254 134.687 13.773Z" fill="white"/>
<path d="M207.598 8.9407C209.956 8.9407 212.32 8.94705 214.677 8.93435C215.36 8.928 215.869 9.1312 215.939 9.89954C215.997 10.5599 215.553 10.96 214.696 10.96C210.271 10.979 205.853 10.979 201.428 10.9917C201.106 10.9917 200.745 10.979 200.475 11.1187C200.204 11.2584 199.856 11.5823 199.856 11.8236C199.863 12.0839 200.185 12.4713 200.449 12.5729C200.868 12.7253 201.357 12.7189 201.814 12.7253C205.724 12.738 209.627 12.7443 213.537 12.7316C214.619 12.7253 215.514 13.0872 216.146 13.9826C216.777 14.8779 216.944 15.8494 216.435 16.8781C215.843 18.0719 214.838 18.5863 213.588 18.5926C209.492 18.6117 205.396 18.599 201.299 18.599C200.7 18.599 200.101 18.6307 199.508 18.5863C198.897 18.5418 198.362 18.2942 198.343 17.5639C198.323 16.821 198.877 16.5987 199.457 16.4781C199.689 16.4273 199.946 16.459 200.185 16.459C204.474 16.459 208.758 16.459 213.047 16.4527C213.292 16.4527 213.576 16.5225 213.769 16.4146C214.046 16.2622 214.452 15.9574 214.439 15.7478C214.419 15.4621 214.091 15.1319 213.82 14.9478C213.621 14.8144 213.299 14.8462 213.028 14.8462C209.041 14.8525 205.054 14.8652 201.067 14.8716C199.212 14.8716 197.647 13.627 197.55 12.0966C197.447 10.3885 198.768 8.9661 200.513 8.9534C202.877 8.93435 205.235 8.94705 207.598 8.9407Z" fill="white"/>
<path d="M163.774 8.97889C166.132 8.97889 168.495 8.94079 170.853 8.99159C173.023 9.03604 174.402 11.4681 173.262 13.2651C172.907 13.8302 172.225 14.1795 171.684 14.6176C171.51 14.7573 171.31 14.8653 171.123 14.9859C171.278 15.1955 171.4 15.4368 171.593 15.5955C172.141 16.0464 172.772 16.4083 173.255 16.91C173.481 17.1449 173.642 17.7799 173.494 17.9704C173.262 18.2752 172.753 18.5038 172.366 18.4911C171.98 18.4848 171.568 18.1863 171.213 17.9514C169.339 16.7258 167.445 15.5193 165.217 15.1066C164.186 14.9161 163.117 14.9097 162.067 14.8716C160.985 14.8335 159.897 14.8272 158.815 14.8653C157.836 14.9034 157.636 15.151 157.623 16.1353C157.617 16.5544 157.649 16.9735 157.617 17.3862C157.546 18.1419 157.05 18.6372 156.406 18.5737C155.697 18.5038 155.362 18.0466 155.356 17.3354C155.349 16.7258 155.343 16.1162 155.362 15.5003C155.401 13.9572 156.457 12.8016 157.971 12.7889C161.771 12.7571 165.565 12.7762 169.365 12.7635C169.796 12.7635 170.267 12.8016 170.647 12.6492C170.969 12.5222 171.188 12.1348 171.458 11.8618C171.201 11.6141 170.982 11.2903 170.685 11.1379C170.415 10.9982 170.054 11.0172 169.732 11.0172C165.855 11.0363 161.977 11.0744 158.1 11.0934C157.559 11.0934 157.024 10.9982 156.483 11.0045C155.755 11.0109 155.388 10.5727 155.414 9.93138C155.433 9.30909 155.903 8.97254 156.535 8.97254C157.726 8.96619 158.924 8.95984 160.116 8.95984C161.339 8.95984 162.557 8.95984 163.781 8.95984V8.97889H163.774Z" fill="white"/>
<path d="M185.545 18.5862C183.889 18.5862 182.234 18.5862 180.579 18.5862C178.144 18.5862 176.134 16.6051 176.057 14.0841C176.018 12.8078 176.038 11.5314 176.057 10.2487C176.063 9.44865 176.54 8.92796 177.216 8.93431C177.848 8.94066 178.305 9.4423 178.318 10.217C178.337 11.4108 178.311 12.6046 178.324 13.7984C178.344 15.4367 179.252 16.4082 180.849 16.4209C184.05 16.4463 187.251 16.44 190.453 16.4209C191.709 16.4146 192.655 15.6081 192.81 14.3381C192.932 13.3285 192.894 12.2934 192.926 11.2647C192.939 10.8202 192.939 10.3757 192.971 9.93125C193.01 9.3026 193.39 8.97875 193.969 8.93431C194.575 8.88986 195.051 9.27085 195.058 9.82965C195.071 11.6267 195.142 13.4491 194.858 15.2081C194.575 16.9479 192.887 18.7132 190.433 18.5926C188.804 18.5227 187.174 18.5862 185.545 18.5862Z" fill="white"/>
</svg>
