<?xml version="1.0" encoding="utf-8"?>
<!-- Generator: Adobe Illustrator 23.0.1, SVG Export Plug-In . SVG Version: 6.00 Build 0)  -->
<svg version="1.1" id="Layer_2" xmlns="http://www.w3.org/2000/svg" xmlns:xlink="http://www.w3.org/1999/xlink" x="0px" y="0px"
	 viewBox="0 0 2776 159.6" style="enable-background:new 0 0 2776 159.6;" xml:space="preserve">
<style type="text/css">
	.st0{fill:#FFFFFF;}
</style>
<g>
	<path class="st0" d="M152.6,154.7c-3.3,3.3-7.2,4.9-11.9,4.9c-4.7,0-8.6-1.6-11.9-4.9c-3.3-3.3-4.9-7.2-4.9-11.9v-42.7
		c-8.9,0-17.5-1.2-25.9-3.5c-8.4-2.3-17.2-6-26.4-11c-9.2-5-19.1-11.5-29.6-19.4c-10.5-7.9-22.3-17.6-35.4-29
		c-1.9-1.6-3.4-3.6-4.7-6C0.6,28.8,0,26.4,0,23.8c0-4.7,1.6-8.6,4.9-11.9C8.2,8.6,12.1,7,16.8,7c2.3,0,4.4,0.5,6.3,1.4
		c1.9,0.9,3.7,2.1,5.6,3.5C43.6,25,56.2,35.2,66.3,42.5c10.1,7.4,19.2,12.8,27.3,16.3c8,3.5,15.7,5.7,22.9,6.5
		c7.2,0.8,15.4,1.2,24.5,1.2c9.1,0,17.2-0.4,24.2-1.1c7-0.7,14.5-2.8,22.4-6.3c7.9-3.5,17-8.9,27.1-16.3c10.1-7.4,22.8-17.7,38-31
		c4-3.3,7.9-4.9,11.9-4.9c4.7,0,8.6,1.6,11.9,4.9c3.3,3.3,4.9,7.2,4.9,11.9c0,2.6-0.6,5-1.9,7.4c-1.3,2.3-2.9,4.3-4.7,6
		c-12.8,11.2-24.6,20.8-35.4,28.9c-10.7,8-20.8,14.6-30.3,19.6c-9.5,5-18.4,8.7-27,11c-8.5,2.3-16.7,3.5-24.7,3.5v42.7
		C157.5,147.5,155.9,151.4,152.6,154.7z"/>
	<path class="st0" d="M311.2,153.3c-3.5,4.2-7.8,6.3-13,6.3c-4.7,0-8.6-1.6-11.9-4.9c-3.3-3.3-4.9-7.2-4.9-11.9
		c0-4.2,1.2-7.6,3.5-10.2l85-114.4c4-5.4,9.2-9.7,15.8-13.1c6.5-3.4,13.5-5.1,21-5.1c7,0,13.7,1.5,20,4.5c6.3,3,11.4,7.2,15.4,12.6
		l85.1,113.7c1.4,1.6,2.6,3.4,3.5,5.4c0.9,2,1.4,4.1,1.4,6.5c0,4.7-1.6,8.6-4.9,11.9c-3.3,3.3-7.2,4.9-11.9,4.9
		c-5.6,0-10-2.2-13.3-6.7L420.4,44.1c-1.6-1.9-3.7-3.9-6.1-6.1c-2.5-2.2-5-3.3-7.5-3.3c-2.6,0-5.1,1.1-7.5,3.3
		c-2.4,2.2-4.4,4.3-5.8,6.1L311.2,153.3z"/>
	<path class="st0" d="M836.1,154.7c-3.3,3.3-7.2,4.9-11.9,4.9c-4.7,0-8.6-1.6-11.9-4.9c-3.3-3.3-4.9-7.2-4.9-11.9v-42.7H600.6v42.7
		c0,4.7-1.6,8.6-4.9,11.9c-3.3,3.3-7.2,4.9-11.9,4.9c-4.7,0-8.6-1.6-11.9-4.9c-3.3-3.3-4.9-7.2-4.9-11.9v-119
		c0-4.7,1.6-8.6,4.9-11.9c3.3-3.3,7.2-4.9,11.9-4.9c4.7,0,8.6,1.6,11.9,4.9c3.3,3.3,4.9,7.2,4.9,11.9v42.7h206.9V23.8
		c0-4.7,1.6-8.6,4.9-11.9c3.3-3.3,7.2-4.9,11.9-4.9c4.7,0,8.6,1.6,11.9,4.9c3.3,3.3,4.9,7.2,4.9,11.9v119
		C841,147.5,839.4,151.4,836.1,154.7z"/>
	<path class="st0" d="M1145.5,11.9c3.3,3.3,4.9,7.2,4.9,11.9c0,4.7-1.6,8.6-4.9,11.9c-3.3,3.3-7.2,4.9-11.9,4.9H1030v102.2
		c0,4.7-1.6,8.6-4.9,11.9c-3.3,3.3-7.2,4.9-11.9,4.9c-4.7,0-8.6-1.6-11.9-4.9c-3.3-3.3-4.9-7.2-4.9-11.9V40.6h-105
		c-4.2-0.5-7.8-2.3-10.9-5.4c-3-3.1-4.5-6.9-4.5-11.4c0-4.7,1.6-8.6,4.9-11.9c3.3-3.3,7.2-4.9,11.9-4.9h240.8
		C1138.3,7,1142.3,8.6,1145.5,11.9z"/>
	<path class="st0" d="M1185.4,23.8c0-4.7,1.6-8.6,4.9-11.9c3.3-3.3,7.2-4.9,11.9-4.9h248.2c4.7,0,8.6,1.6,11.9,4.9
		c3.3,3.3,4.9,7.2,4.9,11.9c0,4.7-1.6,8.6-4.9,11.9c-3.3,3.3-7.2,4.9-11.9,4.9h-248.2c-4.7,0-8.6-1.6-11.9-4.9
		C1187.1,32.4,1185.4,28.5,1185.4,23.8z M1228.1,159.6c-5.1,0-10.3-1.1-15.4-3.3c-5.1-2.2-9.7-5.3-13.6-9.3c-4-4-7.2-8.8-9.8-14.4
		c-2.6-5.6-3.8-11.9-3.8-18.9V82.2c0-6.3,1.8-10.5,5.4-12.6c3.6-2.1,9.3-3.1,17-3.1h234.8c4.7,0,8.6,1.6,11.9,4.9
		c3.3,3.3,4.9,7.2,4.9,11.9c0,4.7-1.6,8.6-4.9,11.9c-3.3,3.3-7.2,4.9-11.9,4.9H1219v17.2c0,2.3,1,4.4,3,6.1c2,1.8,4.6,2.6,7.9,2.6
		h220.5c4.7,0,8.6,1.6,11.9,4.9c3.3,3.3,4.9,7.2,4.9,11.9c0,4.7-1.6,8.6-4.9,11.9c-3.3,3.3-7.2,4.9-11.9,4.9H1228.1z"/>
	<path class="st0" d="M1502.2,83.3c0-8.9,1.5-17.8,4.4-26.8c2.9-9,7.2-17.1,12.8-24.5c5.6-7.4,12.4-13.4,20.3-18
		c7.9-4.7,16.9-7,27-7h204c4.7,0,8.6,1.6,11.9,4.9c3.3,3.3,4.9,7.2,4.9,11.9c0,4.7-1.6,8.6-4.9,11.9c-3.3,3.3-7.2,4.9-11.9,4.9
		h-196.7c-8.2,0-14.8,1.5-19.8,4.4c-5,2.9-9,6.5-11.9,10.7c-2.9,4.2-4.9,8.8-6,13.8c-1,5-1.6,9.6-1.6,13.8c0,4.2,0.5,8.8,1.6,13.8
		c1,5,3,9.6,6,13.8c2.9,4.2,6.9,7.8,11.9,10.7c5,2.9,11.6,4.4,19.8,4.4h196.7c4.7,0,8.6,1.6,11.9,4.9c3.3,3.3,4.9,7.2,4.9,11.9
		c0,4.7-1.6,8.6-4.9,11.9c-3.3,3.3-7.2,4.9-11.9,4.9h-207.5c-9.6,0-18.1-2.3-25.6-7c-7.5-4.7-13.8-10.7-19.1-18
		c-5.2-7.3-9.3-15.6-12.1-24.7C1503.6,100.8,1502.2,91.9,1502.2,83.3z"/>
	<path class="st0" d="M2634.1,7.2c36.6,0,73.3,0.1,109.9-0.1c10.6-0.1,18.5,3.1,19.6,15.2c0.9,10.4-6,16.7-19.3,16.7
		c-68.7,0.3-137.3,0.3-206,0.5c-5,0-10.6-0.2-14.8,2c-4.2,2.2-9.6,7.3-9.6,11.1c0.1,4.1,5.1,10.2,9.2,11.8
		c6.5,2.4,14.1,2.3,21.2,2.4c60.7,0.2,121.3,0.3,182,0.1c16.8-0.1,30.7,5.6,40.5,19.7c9.8,14.1,12.4,29.4,4.5,45.6
		c-9.2,18.8-24.8,26.9-44.2,27c-63.6,0.3-127.2,0.1-190.8,0.1c-9.3,0-18.6,0.5-27.8-0.2c-9.5-0.7-17.8-4.6-18.1-16.1
		c-0.3-11.7,8.3-15.2,17.3-17.1c3.6-0.8,7.6-0.3,11.3-0.3c66.6,0,133.1,0,199.7-0.1c3.8,0,8.2,1.1,11.2-0.6
		c4.3-2.4,10.6-7.2,10.4-10.5c-0.3-4.5-5.4-9.7-9.6-12.6c-3.1-2.1-8.1-1.6-12.3-1.6c-61.9,0.1-123.8,0.3-185.7,0.4
		c-28.8,0-53.1-19.6-54.6-43.7c-1.6-26.9,18.9-49.3,46-49.5C2560.8,7,2597.5,7.3,2634.1,7.2L2634.1,7.2z"/>
	<path class="st0" d="M1953.8,7.8c36.6,0,73.3-0.6,109.9,0.2c33.7,0.7,55.1,39,37.4,67.3c-5.5,8.9-16.1,14.4-24.5,21.3
		c-2.7,2.2-5.8,3.9-8.7,5.8c2.4,3.3,4.3,7.1,7.3,9.6c8.5,7.1,18.3,12.8,25.8,20.7c3.5,3.7,6,13.7,3.7,16.7
		c-3.6,4.8-11.5,8.4-17.5,8.2c-6-0.1-12.4-4.8-17.9-8.5c-29.1-19.3-58.5-38.3-93.1-44.8c-16-3-32.6-3.1-48.9-3.7
		c-16.8-0.6-33.7-0.7-50.5-0.1c-15.2,0.6-18.3,4.5-18.5,20c-0.1,6.6,0.4,13.2-0.1,19.7c-1.1,11.9-8.8,19.7-18.8,18.7
		c-11-1.1-16.2-8.3-16.3-19.5c-0.1-9.6-0.2-19.2,0.1-28.9c0.6-24.3,17-42.5,40.5-42.7c59-0.5,117.9-0.2,176.9-0.4
		c6.7,0,14,0.6,19.9-1.8c5-2,8.4-8.1,12.6-12.4c-4-3.9-7.4-9-12-11.4c-4.2-2.2-9.8-1.9-14.8-1.9c-60.2,0.3-120.4,0.9-180.6,1.2
		c-8.4,0-16.7-1.5-25.1-1.4c-11.3,0.1-17-6.8-16.6-16.9c0.3-9.8,7.6-15.1,17.4-15.1c18.5-0.1,37.1-0.2,55.6-0.2c19,0,37.9,0,56.9,0
		V7.8z"/>
	<path class="st0" d="M2291.8,159.1c-25.7,0-51.4,0-77.1,0c-37.8,0-69-31.2-70.2-70.9c-0.6-20.1-0.3-40.2,0-60.4
		c0.1-12.6,7.5-20.8,18-20.7c9.8,0.1,16.9,8,17.1,20.2c0.3,18.8-0.1,37.6,0.1,56.4c0.3,25.8,14.4,41.1,39.2,41.3
		c49.7,0.4,99.4,0.3,149.1,0c19.5-0.1,34.2-12.8,36.6-32.8c1.9-15.9,1.3-32.2,1.8-48.4c0.2-7,0.2-14,0.7-21
		c0.6-9.9,6.5-15,15.5-15.7c9.4-0.7,16.8,5.3,16.9,14.1c0.2,28.3,1.3,57-3.1,84.7c-4.4,27.4-30.6,55.2-68.7,53.3
		C2342.4,158,2317.1,159.1,2291.8,159.1z"/>
</g>
</svg>
