<svg width="11" height="12" viewBox="0 0 11 12" fill="none" xmlns="http://www.w3.org/2000/svg">
<g clip-path="url(#clip0)">
<path d="M5.93994 6.57279C9.45994 6.95461 11.1099 9.87279 10.9999 12.0001C10.6699 12.0001 10.3399 12.0001 9.95494 12.0001C9.87244 10.5546 9.29494 9.35461 8.11244 8.48188C7.31494 7.90916 6.40744 7.60916 5.38994 7.63643C3.32744 7.69097 1.23744 9.24552 1.07244 12.0001C0.742438 12.0001 0.412438 12.0001 0.0824378 12.0001C-0.522562 9.84552 2.14494 6.95461 5.16994 6.57279C4.15244 6.38188 3.38244 5.94552 2.83244 5.15461C2.28244 4.3637 2.11744 3.49097 2.30994 2.5637C2.63994 1.03643 4.09744 -0.0817528 5.63744 6.537e-05C7.23244 0.0818835 8.57994 1.28188 8.79994 2.75461C9.01994 4.25461 8.22244 6.05461 5.93994 6.57279ZM5.52744 5.48188C6.70994 5.48188 7.75494 4.50007 7.75494 3.32734C7.75494 2.10007 6.76494 1.09097 5.52744 1.09097C4.31744 1.09097 3.32744 2.07279 3.29994 3.24552C3.29994 4.47279 4.28994 5.48188 5.52744 5.48188Z" fill="#C8C8C8"/>
</g>
<defs>
<clipPath id="clip0">
<rect width="11" height="12" fill="white"/>
</clipPath>
</defs>
</svg>
