<svg width="13" height="13" viewBox="0 0 13 13" fill="none" xmlns="http://www.w3.org/2000/svg">
<path d="M9.70226 12.9982C9.529 12.9982 9.26912 12.9982 8.83598 12.9116C8.48947 12.8249 7.96971 12.7383 7.44995 12.4784C6.93018 12.2186 6.32379 11.872 5.54415 11.4389C4.85113 11.0058 4.15811 10.3128 3.37846 9.5331C2.77207 8.92671 2.25231 8.40695 1.81917 7.80056C1.47266 7.2808 1.12615 6.76103 0.866273 6.3279C0.606391 5.89476 0.433136 5.46162 0.259882 5.02849C0.173255 4.68198 0.0866273 4.24884 0.0866273 3.98896C0 3.64245 0 3.4692 0 3.20931C0 3.12269 0 3.03606 0 2.94943C0 2.68955 0.0866273 2.60292 0.173255 2.42967C0.259882 2.25641 0.346509 2.08316 0.519764 1.99653L2.16568 0.350613C2.59882 -0.0825233 3.11858 -0.0825233 3.55172 0.177359C3.63835 0.263986 3.72497 0.350613 3.89823 0.523868L5.28426 3.12269C5.37089 3.4692 5.37089 3.72908 5.37089 3.98896C5.28426 4.16221 5.11101 4.4221 5.02438 4.59535L4.50462 5.11511C4.50462 5.20174 4.59125 5.375 4.59125 5.46162C4.67787 5.63488 4.85113 5.80813 5.02438 6.15464C5.19764 6.41452 5.54415 6.76103 5.89066 7.10754C6.23716 7.45405 6.58367 7.71393 6.84356 7.97381C7.10344 8.14707 7.36332 8.32032 7.53657 8.40695C7.79646 8.5802 7.88308 8.5802 7.88308 8.5802L8.48947 7.97381C8.92261 7.62731 9.529 7.54068 9.87551 7.71393C9.87551 7.71393 9.96214 7.71393 9.96214 7.80056L12.3877 9.27322C12.7342 9.5331 12.9075 9.79299 12.9075 10.0529C12.9941 10.3994 12.8208 10.6593 12.561 10.9191L10.915 12.5651C10.8284 12.6517 10.6552 12.7383 10.4819 12.9116C10.3086 12.9982 10.1354 12.9982 9.96214 12.9982H9.87551C9.87551 12.9982 9.78888 12.9982 9.70226 12.9982ZM0.9529 3.12269C0.9529 3.20931 0.9529 3.20931 0.9529 3.38257C0.9529 3.4692 0.9529 3.64245 1.03953 3.90233C1.12615 4.16221 1.12615 4.4221 1.21278 4.7686C1.38604 5.11511 1.47266 5.46162 1.73255 5.89476C1.99243 6.3279 2.25231 6.76103 2.59882 7.2808C2.94533 7.80056 3.46509 8.32032 3.98486 8.92671C4.67787 9.61973 5.37089 10.2261 6.06391 10.6593C6.6703 11.0058 7.27669 11.3523 7.70983 11.5255C8.22959 11.6988 8.5761 11.872 8.92261 11.872C9.529 11.9587 9.61563 11.9587 9.78888 11.9587H9.87551C9.96214 11.9587 9.96214 11.872 10.0488 11.872C10.1354 11.872 10.1354 11.7854 10.1354 11.7854L11.8679 10.1395C11.9546 10.0529 11.9546 10.0529 11.9546 10.0529C11.9546 10.0529 11.9546 9.96624 11.8679 9.96624L9.61563 8.66683C9.61563 8.66683 9.529 8.66683 9.529 8.5802C9.529 8.5802 9.35575 8.5802 9.18249 8.66683L8.48947 9.35985C8.40285 9.44648 8.31622 9.44648 8.22959 9.5331C8.14297 9.61973 7.96971 9.61973 7.88308 9.61973H7.79646C7.70983 9.61973 7.44995 9.5331 7.19006 9.35985C7.01681 9.27322 6.6703 9.09997 6.32379 8.84009C6.06391 8.5802 5.63077 8.2337 5.28426 7.88719C4.93776 7.54068 4.59125 7.10754 4.33136 6.76103C4.07148 6.41452 3.89823 6.15464 3.72497 5.89476C3.63835 5.63488 3.55172 5.375 3.46509 5.20174V5.11511C3.46509 5.02849 3.55172 4.68198 3.63835 4.50872L4.33136 3.90233C4.33136 3.90233 4.33136 3.8157 4.33136 3.72908C4.33136 3.64245 4.33136 3.64245 4.33136 3.64245L2.94533 1.04363V0.957004C2.94533 0.957004 2.8587 0.957004 2.8587 1.04363L1.12615 2.68955C1.12615 2.77618 1.12615 2.77618 1.03953 2.8628C1.03953 2.94943 0.9529 3.03606 0.9529 3.12269Z" fill="white"/>
</svg>
