<svg width="15" height="15" viewBox="0 0 15 15" fill="none" xmlns="http://www.w3.org/2000/svg">
<g clip-path="url(#clip0)">
<path d="M11.2 15C11 15 10.7 15 10.2 14.9C9.8 14.8 9.2 14.7 8.6 14.4C8 14.1 7.3 13.7 6.4 13.2C5.6 12.7 4.8 11.9 3.9 11C3.2 10.3 2.6 9.69998 2.1 8.99998C1.7 8.39998 1.3 7.79998 1 7.29998C0.7 6.79998 0.5 6.29998 0.3 5.79998C0.2 5.39998 0.1 4.89998 0.1 4.59998C0 4.19998 0 3.99998 0 3.69998C0 3.59998 0 3.49998 0 3.39998C0 3.09998 0.1 2.99998 0.2 2.79998C0.3 2.59998 0.4 2.39998 0.6 2.29998L2.5 0.399977C3 -0.100023 3.6 -0.100023 4.1 0.199977C4.2 0.299977 4.3 0.399977 4.5 0.599977L6.1 3.59998C6.2 3.99998 6.2 4.29998 6.2 4.59998C6.1 4.79998 5.9 5.09998 5.8 5.29998L5.2 5.89998C5.2 5.99998 5.3 6.19998 5.3 6.29998C5.4 6.49998 5.6 6.69998 5.8 7.09998C6 7.39998 6.4 7.79998 6.8 8.19998C7.2 8.59998 7.6 8.89998 7.9 9.19998C8.2 9.39998 8.5 9.59998 8.7 9.69998C9 9.89998 9.1 9.89998 9.1 9.89998L9.8 9.19998C10.3 8.79998 11 8.69998 11.4 8.89998C11.4 8.89998 11.5 8.89998 11.5 8.99998L14.3 10.7C14.7 11 14.9 11.3 14.9 11.6C15 12 14.8 12.3 14.5 12.6L12.6 14.5C12.5 14.6 12.3 14.7 12.1 14.9C11.9 15 11.7 15 11.5 15H11.4C11.4 15 11.3 15 11.2 15ZM1.1 3.59998C1.1 3.69998 1.1 3.69998 1.1 3.89998C1.1 3.99998 1.1 4.19998 1.2 4.49998C1.3 4.79998 1.3 5.09998 1.4 5.49998C1.6 5.89998 1.7 6.29998 2 6.79998C2.3 7.29998 2.6 7.79998 3 8.39998C3.4 8.99998 4 9.59998 4.6 10.3C5.4 11.1 6.2 11.8 7 12.3C7.7 12.7 8.4 13.1 8.9 13.3C9.5 13.5 9.9 13.7 10.3 13.7C11 13.8 11.1 13.8 11.3 13.8H11.4C11.5 13.8 11.5 13.7 11.6 13.7C11.7 13.7 11.7 13.6 11.7 13.6L13.7 11.7C13.8 11.6 13.8 11.6 13.8 11.6C13.8 11.6 13.8 11.5 13.7 11.5L11.1 9.99998C11.1 9.99998 11 9.99998 11 9.89998C11 9.89998 10.8 9.89998 10.6 9.99998L9.8 10.8C9.7 10.9 9.6 10.9 9.5 11C9.4 11.1 9.2 11.1 9.1 11.1H9C8.9 11.1 8.6 11 8.3 10.8C8.1 10.7 7.7 10.5 7.3 10.2C7 9.89998 6.5 9.49998 6.1 9.09998C5.7 8.69998 5.3 8.19998 5 7.79998C4.7 7.39998 4.5 7.09998 4.3 6.79998C4.2 6.49998 4.1 6.19998 4 5.99998V5.89998C4 5.79998 4.1 5.39998 4.2 5.19998L5 4.49998C5 4.49998 5 4.39998 5 4.29998C5 4.19998 5 4.19998 5 4.19998L3.4 1.19998V1.09998C3.4 1.09998 3.3 1.09998 3.3 1.19998L1.3 3.09998C1.3 3.19998 1.3 3.19998 1.2 3.29998C1.2 3.39998 1.1 3.49998 1.1 3.59998Z" fill="#313131"/>
</g>
<defs>
<clipPath id="clip0">
<rect width="15" height="15" fill="white"/>
</clipPath>
</defs>
</svg>
