<svg width="12" height="17" viewBox="0 0 12 17" fill="none" xmlns="http://www.w3.org/2000/svg">
<path d="M5.49312 16.5405C5.17823 16.1468 4.94206 15.7532 4.70589 15.3596C3.52503 13.549 2.34418 11.6596 1.3995 9.77025C0.927162 8.82557 0.454821 7.88089 0.218651 6.85748C-0.174966 5.51919 -0.0175191 4.25961 0.533545 3.15749C1.3995 1.42557 2.7378 0.48089 4.62716 0.087273C7.53993 -0.463791 10.4527 1.66174 11.0038 4.57451C11.1612 5.51919 11.0038 6.38514 10.6889 7.2511C10.2165 8.66812 9.50801 10.0851 8.72078 11.4234C7.7761 13.0766 6.75269 14.7298 5.65057 16.383C5.57184 16.383 5.57184 16.4617 5.49312 16.5405ZM5.49312 15.2809C5.49312 15.2022 5.57184 15.2022 5.57184 15.2022C6.51652 13.7851 7.46121 12.2894 8.32716 10.7937C8.95695 9.69153 9.50801 8.51068 9.98035 7.32982C10.2952 6.46387 10.4527 5.59791 10.2952 4.73195C9.82291 2.68514 8.56333 1.34685 6.51652 0.95323C4.46972 0.402167 2.81652 1.11068 1.55695 2.76387C0.690992 4.02344 0.376098 5.36174 0.927162 6.77876C1.16333 7.48727 1.47823 8.19578 1.79312 8.90429C2.7378 10.8724 3.83993 12.7617 5.02078 14.5724C5.17823 14.8085 5.33567 15.0447 5.49312 15.2809Z" fill="white"/>
<path d="M5.57188 6.77877C6.52839 6.77877 7.3038 6.00337 7.3038 5.04686C7.3038 4.09035 6.52839 3.31494 5.57188 3.31494C4.61537 3.31494 3.83997 4.09035 3.83997 5.04686C3.83997 6.00337 4.61537 6.77877 5.57188 6.77877Z" stroke="white" stroke-miterlimit="10"/>
</svg>
