<svg width="15" height="22" viewBox="0 0 15 22" fill="none" xmlns="http://www.w3.org/2000/svg">
<path d="M6.97775 21.0109C6.57775 20.5109 6.27775 20.0109 5.97775 19.5109C4.47775 17.2109 2.97775 14.8109 1.77775 12.4109C1.17775 11.2109 0.577746 10.0109 0.277746 8.71086C-0.222254 7.01086 -0.0222539 5.41086 0.677746 4.01086C1.77775 1.81086 3.47775 0.61086 5.87775 0.11086C9.57775 -0.58914 13.2777 2.11086 13.9777 5.81086C14.1777 7.01086 13.9777 8.11086 13.5777 9.21086C12.9777 11.0109 12.0777 12.8109 11.0777 14.5109C9.87775 16.6109 8.57775 18.7109 7.17775 20.8109C7.07775 20.8109 7.07775 20.9109 6.97775 21.0109ZM6.97775 19.4109C6.97775 19.3109 7.07775 19.3109 7.07775 19.3109C8.27775 17.5109 9.47775 15.6109 10.5777 13.7109C11.3777 12.3109 12.0777 10.8109 12.6777 9.31086C13.0777 8.21086 13.2777 7.11086 13.0777 6.01086C12.4777 3.41086 10.8777 1.71086 8.27775 1.21086C5.67775 0.51086 3.57775 1.41086 1.97775 3.51086C0.877746 5.11086 0.477746 6.81086 1.17775 8.61086C1.47775 9.51086 1.87775 10.4109 2.27775 11.3109C3.47775 13.8109 4.87775 16.2109 6.37775 18.5109C6.57775 18.8109 6.77775 19.1109 6.97775 19.4109Z" fill="black"/>
<path d="M7.07769 8.61082C8.29271 8.61082 9.27769 7.62584 9.27769 6.41082C9.27769 5.19579 8.29271 4.21082 7.07769 4.21082C5.86266 4.21082 4.87769 5.19579 4.87769 6.41082C4.87769 7.62584 5.86266 8.61082 7.07769 8.61082Z" fill="white" stroke="black" stroke-miterlimit="10"/>
</svg>
