<svg width="15" height="11" viewBox="0 0 15 11" fill="none" xmlns="http://www.w3.org/2000/svg">
<g clip-path="url(#clip0)">
<path d="M13.7647 11H1.23529C0.529412 11 0 10.4762 0 9.77778V1.22222C0 0.523809 0.529412 0 1.23529 0H13.8529C14.4706 0 15 0.523809 15 1.22222V9.86508C15 10.4762 14.4706 11 13.7647 11ZM1.23529 0.960317C1.05882 0.960317 1.05882 1.04762 1.05882 1.13492V9.77778C1.05882 9.95238 1.14706 9.95238 1.23529 9.95238H13.8529C14.0294 9.95238 14.0294 9.86508 14.0294 9.77778V1.22222C14.0294 1.04762 13.9412 1.04762 13.8529 1.04762H1.23529V0.960317Z" fill="#313131"/>
<path d="M7.41175 6.28572C7.32351 6.28572 7.23528 6.28572 7.14704 6.19842L0.617629 1.83334C0.441158 1.74604 0.441158 1.48413 0.529393 1.22223C0.617629 0.960324 0.97057 0.960324 1.23528 1.04763L7.41175 5.2381L13.9412 1.04763C14.1176 0.873023 14.4706 0.960324 14.647 1.22223C14.8235 1.39683 14.7353 1.74604 14.4706 1.92064L7.67645 6.28572C7.67645 6.19842 7.49998 6.28572 7.41175 6.28572Z" fill="#313131"/>
</g>
<defs>
<clipPath id="clip0">
<rect width="15" height="11" fill="white"/>
</clipPath>
</defs>
</svg>
