<svg width="12" height="9" viewBox="0 0 12 9" fill="none" xmlns="http://www.w3.org/2000/svg">
<g clip-path="url(#clip0)">
<path d="M11.0118 8.89412H0.988235C0.423529 8.89412 0 8.47059 0 7.90588V0.988235C0 0.423529 0.423529 0 0.988235 0H11.0824C11.5765 0 12 0.423529 12 0.988235V7.97647C12 8.47059 11.5765 8.89412 11.0118 8.89412ZM0.988235 0.776471C0.847059 0.776471 0.847059 0.847059 0.847059 0.917647V7.90588C0.847059 8.04706 0.917647 8.04706 0.988235 8.04706H11.0824C11.2235 8.04706 11.2235 7.97647 11.2235 7.90588V0.988235C11.2235 0.847059 11.1529 0.847059 11.0824 0.847059H0.988235V0.776471Z" fill="white"/>
<path d="M5.92945 5.0823C5.85886 5.0823 5.78827 5.0823 5.71768 5.01171L0.494152 1.4823C0.352975 1.41171 0.352975 1.19995 0.423563 0.988184C0.494152 0.77642 0.776505 0.77642 0.988269 0.847008L5.92945 4.23524L11.153 0.847008C11.2942 0.705831 11.5765 0.77642 11.7177 0.988184C11.8589 1.12936 11.7883 1.41171 11.5765 1.55289L6.14121 5.0823C6.14121 5.01171 6.00003 5.0823 5.92945 5.0823Z" fill="white"/>
</g>
<defs>
<clipPath id="clip0">
<rect width="12" height="8.89412" fill="white"/>
</clipPath>
</defs>
</svg>
