<?xml version="1.0" encoding="utf-8"?>
<!-- Generator: Adobe Illustrator 23.0.1, SVG Export Plug-In . SVG Version: 6.00 Build 0)  -->
<svg version="1.1" id="Слой_1" xmlns="http://www.w3.org/2000/svg" xmlns:xlink="http://www.w3.org/1999/xlink" x="0px" y="0px"
	 viewBox="0 0 410 426.9" style="enable-background:new 0 0 410 426.9;" xml:space="preserve">
<g>
	<path d="M170.8,232.9c0-4.8,0-9.5,0-14.3c0-50,0-100,0-150c0-17.3,11.9-31,28.8-33.8c20.2-3.3,39,12.1,39.3,32.7
		c0.3,22.7,0.1,45.3,0.1,68c0,1.6,0,3.3,0,5c26.6-6.8,37.2-2.9,49.5,18.4c19.1-10.4,40.7-5,51.5,17.2c7.7-4.5,16.1-6.4,24.9-4.6
		c15.6,3.1,27.3,15.8,27.6,31.8c0.5,22.8,0.5,45.7-0.2,68.5c-0.7,24.3-7.8,47.5-14.9,70.6c-5.9,19.2-11.5,38.6-16.8,58
		c-1.4,4.9-1.5,10.2-1.9,15.3c-0.5,7.4-3.8,11.6-9.2,11.3c-5.5-0.3-8.2-4.5-7.9-12.2c0.7-17.5,5.9-34,10.9-50.6
		c6.8-22.6,13.8-45.2,19.6-68c2.5-9.7,3.1-20.1,3.4-30.2c0.5-19.8,0.3-39.7,0.1-59.5c-0.1-13.4-11.7-21.9-23.3-17.2
		c-7,2.8-10.7,8.3-10.8,15.9c-0.1,7.8,0,15.7-0.1,23.5c-0.1,6.8-3.2,10.6-8.6,10.6c-5.4-0.1-8.5-3.9-8.6-10.7c0-13,0-26,0-39
		c-0.1-10.9-6.9-18.4-16.7-18.5c-10.2-0.1-17.3,7.4-17.4,18.4c-0.1,7.7,0,15.3,0,23c-0.1,6-3.4,9.7-8.4,9.7c-5,0-8.5-3.8-8.6-9.7
		c-0.1-13.3,0-26.7,0-40c0-11.2-6.9-18.5-17.1-18.5c-10.1,0-16.9,7.6-16.9,18.8c0,13,0,26,0,39c0,6.4-3.1,10.2-8.3,10.4
		c-5.3,0.1-8.8-4-8.8-10.5c0-47.3,0-94.7,0-142c0-12.4-10-20.5-21.5-17.6c-7.6,1.9-12.5,8.5-12.5,17.1c-0.1,24.5,0,49,0,73.5
		c0,39.8,0,79.7,0,119.5c0,5-1,9-6.3,10.6c-5,1.5-9-0.5-12.3-6c-10.2-17.6-20.3-35.2-30.5-52.7c-3.8-6.5-9.7-9.6-17.2-8.7
		c-7.1,0.8-13.1,5.9-14.1,12.9c-0.6,4.2-0.2,9.5,2,12.8c15.7,24.4,25.6,51.1,32.7,79c4.4,17.2,12.5,32.5,22.4,47.1
		c12.1,17.7,24.2,35.5,36.4,53.2c0.5,0.7,1,1.3,1.5,2c3.4,5,2.9,9.8-1.2,12.8c-4.1,3-9.1,2.1-12.5-2.7
		c-8.1-11.4-16.2-22.8-24.1-34.3c-4.1-5.9-7.8-12-11.9-17.9c-14.2-20.3-24.6-42.2-30.4-66.3c-5.3-22.4-14.3-43.2-26.8-62.6
		c-6.3-9.8-7.8-20.6-3.4-31.5c5.2-12.9,15.1-20.3,28.8-21.5c13.6-1.2,24.5,4.3,31.8,15.9c5.9,9.4,11.3,19.2,16.9,28.8
		C170.1,233,170.5,232.9,170.8,232.9z"/>
	<path d="M380.3,51.3c-2.9,0-4.7,0-6.4,0c-35.5,0-71,0-106.5,0c-2.1,0-4.5,0-6.3-0.8c-3.7-1.6-5.4-4.9-4.9-8.9
		c0.6-4.4,4.2-7.2,9.4-7.2c12.7-0.1,25.3,0,38,0c23.7,0,47.3,0,71,0c1.5,0,2.9,0,5.3,0c-1.5-1.8-2.3-2.9-3.3-3.9
		c-5.2-5.2-10.4-10.3-15.5-15.6c-3.3-3.5-3.3-8.5-0.4-11.8c3.1-3.4,8.2-4.1,11.7-0.8c11.9,11.6,23.7,23.4,35.3,35.4
		c3.2,3.3,3,7.6-0.2,10.9c-11.4,11.7-23,23.2-34.6,34.6c-3.5,3.4-8.5,3.1-11.7-0.1c-3.4-3.3-3.5-8.4,0-12.1
		c4.9-5.2,10.1-10.2,15.2-15.2C377.4,54.5,378.4,53.3,380.3,51.3z"/>
	<path d="M29.9,52.6c6.2,6,12.4,12,18.6,18c3.1,3,3.6,6.7,1.5,10.5c-2,3.6-5.5,4.9-9.4,3.8c-1.7-0.4-3.3-1.6-4.6-2.8
		C25.1,71.5,14.3,60.6,3.5,49.7c-4.7-4.8-4.6-9.1,0.1-13.9C14.3,25.1,25,14.3,35.7,3.7c4.5-4.5,9.5-4.7,13.2-0.9
		c3.4,3.5,3,8.7-1.1,12.8C42,21.5,36,27.2,29.2,33.9c3.1,0.2,4.7,0.3,6.3,0.3c35,0,70,0,105,0c1.5,0,3-0.1,4.5,0.1
		c5.2,0.4,8.8,3.9,8.8,8.4c0.1,4.8-3.7,8.5-9.1,8.6c-14.5,0.1-29,0-43.5,0c-22.2,0-44.3,0-66.5,0c-1.3,0-2.6,0-3.9,0
		C30.5,51.7,30.2,52.2,29.9,52.6z"/>
</g>
</svg>
