<svg width="17" height="14" viewBox="0 0 17 14" fill="none" xmlns="http://www.w3.org/2000/svg">
<path d="M4.99582 10.8362C3.38636 10.6611 2.31854 9.90009 1.70725 8.41605C2.20247 8.41605 2.65126 8.41605 3.10779 8.41605C3.12327 8.38561 3.13875 8.35516 3.15422 8.31711C1.49833 7.76916 0.585263 6.67325 0.461458 4.95329C0.964416 5.09028 1.43642 5.21204 1.90843 5.34142C1.93164 5.31098 1.94712 5.28054 1.97033 5.2501C1.02632 4.50427 0.500147 3.56058 0.492409 2.37334C0.492409 1.74929 0.670379 1.13284 0.995368 0.706653C2.89887 2.86802 5.28212 4.09331 8.24571 4.29879C8.23024 4.09331 8.2225 3.91066 8.21476 3.72801C8.16059 2.22874 8.77962 1.07195 10.1415 0.409845C11.4956 -0.252265 12.8188 -0.115277 14.0027 0.843641C14.2657 1.05673 14.5056 1.11762 14.8151 1.00346C15.3645 0.797978 15.9139 0.600106 16.4942 0.394624C16.293 1.1024 15.8133 1.6123 15.2639 2.07654C15.2794 2.10698 15.3026 2.13742 15.3181 2.16786C15.852 2.03087 16.3936 1.89388 16.9276 1.7569C16.9508 1.77973 16.974 1.80256 16.9972 1.82539C16.5407 2.28202 16.1073 2.75387 15.6276 3.18005C15.3877 3.39314 15.2949 3.60624 15.2794 3.92588C15.0859 8.10402 13.2134 11.2852 9.27484 13.0052C6.1565 14.3674 3.02268 14.1163 0.043615 12.4344C0.0126637 12.4192 -0.0105498 12.3887 0.0049259 12.4039C0.840611 12.2898 1.72272 12.2289 2.57388 12.0386C3.44052 11.8484 4.22204 11.4222 4.99582 10.8362Z" fill="#A9ACB0"/>
</svg>
