<svg width="15" height="15" fill="none" xmlns="http://www.w3.org/2000/svg"><path d="M1 13.69V3.28c0-.03.03-.03.03-.06.15-.6.57-.93 1.17-.93H4v-.84c0-.24.15-.45.42-.45.21 0 .42.18.42.45v.84h2.58v-.84c.03-.3.21-.45.42-.45s.42.18.42.42v.84h2.58v-.84c.03-.21.21-.42.45-.42.24 0 .42.18.42.45v.84h1.74c.78 0 1.23.48 1.23 1.23V13.6c-.03.48-.36.9-.81 1.05-.06.03-.12.03-.15.06H2.02c-.03 0-.06-.03-.12-.03-.27-.06-.51-.21-.66-.45-.12-.18-.15-.39-.24-.54zM11.71 3.13v.84c0 .24-.18.45-.45.45s-.42-.18-.42-.45v-.84H8.26V4c0 .33-.33.54-.63.39-.15-.09-.21-.21-.21-.39v-.81H4.84v.84c0 .24-.18.45-.45.45-.24 0-.42-.18-.42-.45v-.84H2.23c-.3 0-.39.09-.39.39v9.9c0 .3.09.39.39.39h11.19c.3 0 .39-.09.39-.39V3.7c0-.42-.09-.51-.48-.48-.54-.09-1.08-.09-1.62-.09z" fill="#C8C8C8"/><path d="M4.03 6.13h1.71v1.26H4.03V6.13zM7 7.39V6.13h1.71v1.26H7zm4.68 0H9.97V6.13h1.71v1.26zm-5.97.87v1.26H4V8.26h1.71zm3 1.26H7V8.26h1.71v1.26zm2.97-1.26v1.26H9.97V8.26h1.71zm-5.97 2.13v1.26H4v-1.26h1.71zM7 11.65v-1.26h1.71v1.26H7zm4.68-1.26v1.26H9.97v-1.26h1.71z" fill="#C8C8C8"/></svg>