<svg width="10" height="13" fill="none" xmlns="http://www.w3.org/2000/svg"><path d="M5.128 0c.062.034.13.062.187.101.194.13.245.327.245.546v6.677c.04-.034.062-.056.085-.079.097-.112.188-.23.29-.337a.554.554 0 0 1 .773-.062.539.539 0 0 1 .074.765c-.165.208-.347.41-.517.613l-.802.945c-.273.32-.648.32-.92 0A143.22 143.22 0 0 1 3.257 7.65c-.204-.242-.204-.54-.01-.748a.555.555 0 0 1 .721-.084c.074.05.13.124.188.185.09.102.176.203.29.299v-.147c0-2.143.005-4.28-.006-6.424 0-.343.09-.602.432-.731h.256z" fill="#fff"/><path d="M8.874 4.213H7.646c-.238 0-.477.006-.716-.005a.541.541 0 0 1-.529-.507.541.541 0 0 1 .398-.562.632.632 0 0 1 .177-.023c.636 0 1.273-.005 1.91 0 .545.006.938.304 1.069.81.028.107.04.225.04.338v7.577c0 .568-.29.968-.808 1.114-.108.028-.227.04-.341.04H1.148c-.562 0-.972-.299-1.108-.816A1.338 1.338 0 0 1 0 11.84V4.264c0-.563.296-.968.807-1.114a.999.999 0 0 1 .29-.034c.66-.005 1.32-.005 1.979 0 .415.006.676.377.534.743-.085.22-.29.354-.557.354H1.12v7.684h7.749c.005-2.56.005-5.113.005-7.684z" fill="#fff"/></svg>