<svg width="18" height="17" fill="none" xmlns="http://www.w3.org/2000/svg"><g clip-path="url(#clip0)"><path d="M14 17h3.8v-6.6c0-.9-.1-1.8-.5-2.7-.5-1.1-1.2-1.9-2.4-2.2-.7-.3-1.5-.3-2.3-.2-.8.1-1.6.5-2.1 1.1-.2.2-.4.5-.6.7V5.5H6.1V17h3.8v-6.3c0-.3 0-.6.1-.9.2-.8.9-1.5 1.9-1.6.9-.1 1.6.3 1.9 1.2.1.4.2.8.2 1.2V17zM.2 5.5V17H4V5.5H.2z" fill="#fff"/><path d="M0 1.7c.1-.3.2-.6.4-.9.5-.6 1.2-.8 2-.8.6.1 1.2.3 1.6.9.8 1.3 0 2.9-1.6 3.1-.6 0-1.1 0-1.6-.4-.4-.3-.7-.7-.8-1.2v-.7zM14 17v-6.3c0-.4-.1-.8-.2-1.2-.3-.9-1-1.3-1.9-1.2-1 .1-1.7.8-1.9 1.6V17H6.2V5.5H10v1.6c.2-.3.4-.5.6-.7.6-.6 1.3-1 2.1-1.1.8-.1 1.5-.1 2.3.2 1.1.4 1.9 1.2 2.4 2.2.4.9.5 1.8.5 2.7V17H14zM.2 5.5H4V17H.2V5.5z" fill="#A9ACB0"/></g><defs><clipPath id="clip0"><path fill="#fff" d="M0 0h17.8v17H0z"/></clipPath></defs></svg>