<svg xmlns="http://www.w3.org/2000/svg" viewBox="0 0 2776 159.6"><path d="M152.6 154.7c-3.3 3.3-7.2 4.9-11.9 4.9s-8.6-1.6-11.9-4.9c-3.3-3.3-4.9-7.2-4.9-11.9v-42.7c-8.9 0-17.5-1.2-25.9-3.5-8.4-2.3-17.2-6-26.4-11S52.5 74.1 42 66.2c-10.5-7.9-22.3-17.6-35.4-29-1.9-1.6-3.4-3.6-4.7-6C.6 28.8 0 26.4 0 23.8c0-4.7 1.6-8.6 4.9-11.9C8.2 8.6 12.1 7 16.8 7c2.3 0 4.4.5 6.3 1.4 1.9.9 3.7 2.1 5.6 3.5C43.6 25 56.2 35.2 66.3 42.5c10.1 7.4 19.2 12.8 27.3 16.3 8 3.5 15.7 5.7 22.9 6.5 7.2.8 15.4 1.2 24.5 1.2s17.2-.4 24.2-1.1c7-.7 14.5-2.8 22.4-6.3 7.9-3.5 17-8.9 27.1-16.3 10.1-7.4 22.8-17.7 38-31 4-3.3 7.9-4.9 11.9-4.9 4.7 0 8.6 1.6 11.9 4.9 3.3 3.3 4.9 7.2 4.9 11.9 0 2.6-.6 5-1.9 7.4-1.3 2.3-2.9 4.3-4.7 6C262 48.3 250.2 57.9 239.4 66c-10.7 8-20.8 14.6-30.3 19.6-9.5 5-18.4 8.7-27 11-8.5 2.3-16.7 3.5-24.7 3.5v42.7c.1 4.7-1.5 8.6-4.8 11.9zm158.6-1.4c-3.5 4.2-7.8 6.3-13 6.3-4.7 0-8.6-1.6-11.9-4.9-3.3-3.3-4.9-7.2-4.9-11.9 0-4.2 1.2-7.6 3.5-10.2l85-114.4c4-5.4 9.2-9.7 15.8-13.1 6.5-3.4 13.5-5.1 21-5.1 7 0 13.7 1.5 20 4.5 6.3 3 11.4 7.2 15.4 12.6l85.1 113.7c1.4 1.6 2.6 3.4 3.5 5.4.9 2 1.4 4.1 1.4 6.5 0 4.7-1.6 8.6-4.9 11.9-3.3 3.3-7.2 4.9-11.9 4.9-5.6 0-10-2.2-13.3-6.7L420.4 44.1c-1.6-1.9-3.7-3.9-6.1-6.1-2.5-2.2-5-3.3-7.5-3.3-2.6 0-5.1 1.1-7.5 3.3-2.4 2.2-4.4 4.3-5.8 6.1l-82.3 109.2zm524.9 1.4c-3.3 3.3-7.2 4.9-11.9 4.9s-8.6-1.6-11.9-4.9c-3.3-3.3-4.9-7.2-4.9-11.9v-42.7H600.6v42.7c0 4.7-1.6 8.6-4.9 11.9-3.3 3.3-7.2 4.9-11.9 4.9s-8.6-1.6-11.9-4.9c-3.3-3.3-4.9-7.2-4.9-11.9v-119c0-4.7 1.6-8.6 4.9-11.9 3.3-3.3 7.2-4.9 11.9-4.9s8.6 1.6 11.9 4.9c3.3 3.3 4.9 7.2 4.9 11.9v42.7h206.9V23.8c0-4.7 1.6-8.6 4.9-11.9 3.3-3.3 7.2-4.9 11.9-4.9s8.6 1.6 11.9 4.9c3.3 3.3 4.9 7.2 4.9 11.9v119c-.1 4.7-1.7 8.6-5 11.9zm309.4-142.8c3.3 3.3 4.9 7.2 4.9 11.9s-1.6 8.6-4.9 11.9c-3.3 3.3-7.2 4.9-11.9 4.9H1030v102.2c0 4.7-1.6 8.6-4.9 11.9-3.3 3.3-7.2 4.9-11.9 4.9s-8.6-1.6-11.9-4.9c-3.3-3.3-4.9-7.2-4.9-11.9V40.6h-105c-4.2-.5-7.8-2.3-10.9-5.4-3-3.1-4.5-6.9-4.5-11.4 0-4.7 1.6-8.6 4.9-11.9 3.3-3.3 7.2-4.9 11.9-4.9h240.8c4.7 0 8.7 1.6 11.9 4.9zm39.9 11.9c0-4.7 1.6-8.6 4.9-11.9 3.3-3.3 7.2-4.9 11.9-4.9h248.2c4.7 0 8.6 1.6 11.9 4.9 3.3 3.3 4.9 7.2 4.9 11.9s-1.6 8.6-4.9 11.9c-3.3 3.3-7.2 4.9-11.9 4.9h-248.2c-4.7 0-8.6-1.6-11.9-4.9-3.2-3.3-4.9-7.2-4.9-11.9zm42.7 135.8c-5.1 0-10.3-1.1-15.4-3.3-5.1-2.2-9.7-5.3-13.6-9.3-4-4-7.2-8.8-9.8-14.4-2.6-5.6-3.8-11.9-3.8-18.9V82.2c0-6.3 1.8-10.5 5.4-12.6 3.6-2.1 9.3-3.1 17-3.1h234.8c4.7 0 8.6 1.6 11.9 4.9 3.3 3.3 4.9 7.2 4.9 11.9s-1.6 8.6-4.9 11.9c-3.3 3.3-7.2 4.9-11.9 4.9H1219v17.2c0 2.3 1 4.4 3 6.1 2 1.8 4.6 2.6 7.9 2.6h220.5c4.7 0 8.6 1.6 11.9 4.9 3.3 3.3 4.9 7.2 4.9 11.9s-1.6 8.6-4.9 11.9c-3.3 3.3-7.2 4.9-11.9 4.9h-222.3zm274.1-76.3c0-8.9 1.5-17.8 4.4-26.8 2.9-9 7.2-17.1 12.8-24.5 5.6-7.4 12.4-13.4 20.3-18 7.9-4.7 16.9-7 27-7h204c4.7 0 8.6 1.6 11.9 4.9 3.3 3.3 4.9 7.2 4.9 11.9s-1.6 8.6-4.9 11.9c-3.3 3.3-7.2 4.9-11.9 4.9H1574c-8.2 0-14.8 1.5-19.8 4.4-5 2.9-9 6.5-11.9 10.7-2.9 4.2-4.9 8.8-6 13.8-1 5-1.6 9.6-1.6 13.8 0 4.2.5 8.8 1.6 13.8 1 5 3 9.6 6 13.8 2.9 4.2 6.9 7.8 11.9 10.7 5 2.9 11.6 4.4 19.8 4.4h196.7c4.7 0 8.6 1.6 11.9 4.9 3.3 3.3 4.9 7.2 4.9 11.9s-1.6 8.6-4.9 11.9c-3.3 3.3-7.2 4.9-11.9 4.9h-207.5c-9.6 0-18.1-2.3-25.6-7s-13.8-10.7-19.1-18c-5.2-7.3-9.3-15.6-12.1-24.7-2.8-9.1-4.2-18-4.2-26.6zM2634.1 7.2c36.6 0 73.3.1 109.9-.1 10.6-.1 18.5 3.1 19.6 15.2.9 10.4-6 16.7-19.3 16.7-68.7.3-137.3.3-206 .5-5 0-10.6-.2-14.8 2-4.2 2.2-9.6 7.3-9.6 11.1.1 4.1 5.1 10.2 9.2 11.8 6.5 2.4 14.1 2.3 21.2 2.4 60.7.2 121.3.3 182 .1 16.8-.1 30.7 5.6 40.5 19.7s12.4 29.4 4.5 45.6c-9.2 18.8-24.8 26.9-44.2 27-63.6.3-127.2.1-190.8.1-9.3 0-18.6.5-27.8-.2-9.5-.7-17.8-4.6-18.1-16.1-.3-11.7 8.3-15.2 17.3-17.1 3.6-.8 7.6-.3 11.3-.3 66.6 0 133.1 0 199.7-.1 3.8 0 8.2 1.1 11.2-.6 4.3-2.4 10.6-7.2 10.4-10.5-.3-4.5-5.4-9.7-9.6-12.6-3.1-2.1-8.1-1.6-12.3-1.6-61.9.1-123.8.3-185.7.4-28.8 0-53.1-19.6-54.6-43.7-1.6-26.9 18.9-49.3 46-49.5 36.7-.4 73.4-.1 110-.2zm-680.3.6c36.6 0 73.3-.6 109.9.2 33.7.7 55.1 39 37.4 67.3-5.5 8.9-16.1 14.4-24.5 21.3-2.7 2.2-5.8 3.9-8.7 5.8 2.4 3.3 4.3 7.1 7.3 9.6 8.5 7.1 18.3 12.8 25.8 20.7 3.5 3.7 6 13.7 3.7 16.7-3.6 4.8-11.5 8.4-17.5 8.2-6-.1-12.4-4.8-17.9-8.5-29.1-19.3-58.5-38.3-93.1-44.8-16-3-32.6-3.1-48.9-3.7-16.8-.6-33.7-.7-50.5-.1-15.2.6-18.3 4.5-18.5 20-.1 6.6.4 13.2-.1 19.7-1.1 11.9-8.8 19.7-18.8 18.7-11-1.1-16.2-8.3-16.3-19.5-.1-9.6-.2-19.2.1-28.9.6-24.3 17-42.5 40.5-42.7 59-.5 117.9-.2 176.9-.4 6.7 0 14 .6 19.9-1.8 5-2 8.4-8.1 12.6-12.4-4-3.9-7.4-9-12-11.4-4.2-2.2-9.8-1.9-14.8-1.9-60.2.3-120.4.9-180.6 1.2-8.4 0-16.7-1.5-25.1-1.4-11.3.1-17-6.8-16.6-16.9.3-9.8 7.6-15.1 17.4-15.1 18.5-.1 37.1-.2 55.6-.2h56.9v.3zm338 151.3h-77.1c-37.8 0-69-31.2-70.2-70.9-.6-20.1-.3-40.2 0-60.4.1-12.6 7.5-20.8 18-20.7 9.8.1 16.9 8 17.1 20.2.3 18.8-.1 37.6.1 56.4.3 25.8 14.4 41.1 39.2 41.3 49.7.4 99.4.3 149.1 0 19.5-.1 34.2-12.8 36.6-32.8 1.9-15.9 1.3-32.2 1.8-48.4.2-7 .2-14 .7-21 .6-9.9 6.5-15 15.5-15.7 9.4-.7 16.8 5.3 16.9 14.1.2 28.3 1.3 57-3.1 84.7-4.4 27.4-30.6 55.2-68.7 53.3-25.3-1.2-50.6-.1-75.9-.1z" fill="#fff"/></svg>