<svg width="230" height="27" fill="none" xmlns="http://www.w3.org/2000/svg"><path d="M16.85 3.746a3.567 3.567 0 0 0-.187.14c-.116.09-.232.178-.342.273-.122.108-.232.222-.341.33-.007.007-.007.013-.02.039.117-.064.22-.134.33-.178.257-.108.508-.216.772-.305.232-.076.477-.114.715-.165a2.39 2.39 0 0 1 .322-.032c.29-.006.58-.025.87-.013.193.007.386.038.573.064.148.019.296.044.444.07.136.025.27.063.412.101.097.026.194.051.284.083.212.07.419.133.625.216.238.095.476.19.708.305.277.133.548.279.825.431.206.115.418.229.618.356.206.133.406.28.599.425.187.14.373.28.58.439h-.09c-.059-.007-.123-.02-.18-.026-.123-.006-.246-.019-.368-.019a9.11 9.11 0 0 0-.618.02c-.174.012-.342.044-.516.069-.16.025-.322.044-.483.07-.148.032-.296.07-.444.108a7.141 7.141 0 0 0-.502.146c-.265.095-.529.19-.767.336-.116.07-.245.121-.348.204-.16.127-.315.26-.45.406-.188.203-.348.432-.426.698-.032.121-.07.242-.09.369a1.45 1.45 0 0 0-.045.374c.013.197.032.4.084.597a3.6 3.6 0 0 0 .586 1.302c.116.159.238.311.367.457.18.204.373.4.554.597.16.172.322.35.47.534.122.158.232.323.341.495.136.216.265.432.374.66.084.165.148.35.213.527.064.184.116.375.167.565.026.108.039.223.051.33.013.204.026.407.026.61 0 .134-.006.273-.032.407a3.41 3.41 0 0 1-.341.99 2.884 2.884 0 0 1-.69.832c-.218.19-.463.337-.74.445a2.918 2.918 0 0 1-.65.184 7.883 7.883 0 0 1-.4.044c-.097.013-.2.026-.296.02a4.452 4.452 0 0 1-.58-.045 4.555 4.555 0 0 1-.663-.14 8.302 8.302 0 0 1-.793-.273 6.496 6.496 0 0 1-.798-.375c-.31-.171-.606-.368-.908-.565a5.722 5.722 0 0 1-.464-.336 2.365 2.365 0 0 1-.232-.21c-.2-.19-.406-.374-.6-.578a4.761 4.761 0 0 1-.373-.431 12.24 12.24 0 0 1-.425-.585 1.853 1.853 0 0 1-.148-.273c.65.432 1.301.845 2.132.921-.116-.057-.219-.102-.31-.159-.192-.108-.392-.21-.572-.343a7.98 7.98 0 0 1-.715-.59c-.161-.146-.303-.318-.451-.483a9.39 9.39 0 0 1-.322-.387c-.116-.159-.232-.318-.329-.49a16.267 16.267 0 0 1-.476-.863c-.084-.165-.142-.343-.207-.52-.051-.16-.096-.324-.141-.49a4.654 4.654 0 0 1-.071-.285.313.313 0 0 1 .006-.108c.464.743 1.037 1.365 1.849 1.753l-.077-.096a7.63 7.63 0 0 1-.677-.895c-.128-.21-.264-.413-.386-.622-.09-.153-.161-.318-.232-.477a6.323 6.323 0 0 1-.161-.368c-.058-.152-.11-.311-.161-.463-.039-.121-.084-.248-.116-.369a2.833 2.833 0 0 1-.07-.336 8.598 8.598 0 0 1-.072-.4 1.956 1.956 0 0 1-.025-.28c0-.28-.007-.565 0-.844.006-.19.038-.381.064-.572.013-.101.032-.203.051-.305h.02c.032.096.07.185.096.28.045.146.123.286.22.4.05.057.135.114.212.095.11-.025.206-.089.245-.21.07-.24.129-.488.219-.717.09-.235.212-.464.335-.692.083-.152.18-.305.29-.445.141-.177.302-.349.463-.508a4.55 4.55 0 0 1 .612-.476 4.879 4.879 0 0 1 1.385-.641c.206-.064.425-.102.638-.153.006 0 .006-.012.013-.012.07.031.115.031.16.031z" fill="#fff"/><path d="M18.808 19.33c.128.012.244.031.354.031.27 0 .534.006.805-.006.213-.013.419-.038.631-.064.18-.025.354-.05.535-.095.232-.057.463-.12.695-.184.38-.115.741-.267 1.076-.47.232-.14.45-.299.638-.502a2.08 2.08 0 0 0 .483-.838 1.95 1.95 0 0 0 .09-.667 2.691 2.691 0 0 0-.064-.457 4.928 4.928 0 0 0-.168-.603 2.313 2.313 0 0 0-.322-.641c-.097-.121-.174-.255-.27-.381a3.567 3.567 0 0 0-.252-.293c-.148-.158-.303-.31-.45-.47-.155-.158-.316-.317-.451-.489-.18-.228-.342-.476-.503-.717a4.098 4.098 0 0 1-.296-.514 6.545 6.545 0 0 1-.238-.585 3.951 3.951 0 0 1-.162-.514c-.038-.152-.038-.317-.077-.47-.045-.21-.02-.419-.025-.635-.007-.21.038-.406.083-.61a2.415 2.415 0 0 1 .844-1.307c.18-.147.38-.26.586-.356.122-.057.258-.083.386-.12.374-.109.754-.109 1.14-.096.149.006.297.038.445.064.155.025.316.057.464.095.129.032.257.082.386.127.2.082.4.159.593.254.2.101.386.21.573.33.174.108.341.229.509.343.045.032.09.07.135.108.168.159.341.311.509.476.142.14.283.292.419.445.128.146.238.31.36.463.13.165.27.324.4.495a10 10 0 0 1 .386.521c.103.152.206.305.303.457.096.153.18.305.27.457.11.191.213.381.31.578.09.19.173.381.25.572.072.165.149.324.213.489.071.19.13.387.194.584.038.12.083.248.115.375.033.108.052.222.071.336.02.09.033.172.052.26.013.064.032.121.039.185.019.133.032.273.051.406.07.387.045.781.039 1.175 0 .235-.039.463-.065.698a4.848 4.848 0 0 1-.045.305c-.026.127-.058.248-.084.375a4.65 4.65 0 0 1-.444 1.13 4.746 4.746 0 0 1-.992 1.276c-.219.197-.45.381-.708.521-.168.089-.329.197-.496.28a4.034 4.034 0 0 1-.522.203 6.914 6.914 0 0 1-.515.158c-.11.032-.22.051-.329.07-.142.026-.283.057-.425.076-.103.013-.212.02-.322.026-.335 0-.676.006-1.011 0-.187-.006-.38-.038-.567-.064a3.281 3.281 0 0 1-.348-.05c-.116-.02-.225-.051-.335-.07-.103-.026-.212-.038-.315-.064-.187-.044-.367-.095-.554-.146a9.662 9.662 0 0 1-.606-.203c-.244-.095-.49-.197-.728-.311a17.099 17.099 0 0 1-.901-.457c-.27-.153-.535-.324-.793-.496a8.845 8.845 0 0 1-.508-.343c-.13-.095-.252-.196-.38-.298l-.155-.114c.013-.013.006-.026-.006-.045zm28.958-1.023a1.04 1.04 0 0 1-.766.311c-.303 0-.554-.101-.767-.311a1.014 1.014 0 0 1-.315-.756V14.84a6.365 6.365 0 0 1-1.669-.222 8.114 8.114 0 0 1-1.7-.699c-.593-.317-1.23-.73-1.907-1.232a42.116 42.116 0 0 1-2.28-1.841 1.288 1.288 0 0 1-.302-.381.932.932 0 0 1-.123-.47c0-.299.103-.546.316-.756.212-.21.464-.31.766-.31.148 0 .284.03.406.088.123.057.238.133.36.222.96.832 1.772 1.48 2.423 1.943.65.47 1.236.813 1.758 1.035a5.23 5.23 0 0 0 1.475.413c.464.05.992.076 1.578.076.586 0 1.108-.025 1.559-.07.45-.044.934-.177 1.442-.4.51-.222 1.095-.565 1.746-1.035.65-.47 1.468-1.124 2.448-1.968.257-.21.508-.311.766-.311.303 0 .554.101.767.31.212.21.315.458.315.757a.948.948 0 0 1-.122.47 1.62 1.62 0 0 1-.303.38 39.244 39.244 0 0 1-2.28 1.836c-.69.508-1.34.927-1.952 1.244-.612.318-1.185.553-1.739.699a6.16 6.16 0 0 1-1.59.222v2.711a.998.998 0 0 1-.31.756zm10.209-.089a1.05 1.05 0 0 1-.837.4c-.303 0-.554-.102-.767-.311a1.014 1.014 0 0 1-.315-.756c0-.266.077-.482.225-.647l5.475-7.265a2.855 2.855 0 0 1 1.017-.832c.42-.216.87-.323 1.353-.323.451 0 .882.095 1.288.285.406.19.735.457.992.8l5.481 7.22c.09.102.168.216.226.343a.97.97 0 0 1 .09.413c0 .298-.103.546-.316.755a1.04 1.04 0 0 1-.766.312c-.36 0-.644-.14-.857-.426l-5.249-6.909a4.496 4.496 0 0 0-.393-.387c-.161-.14-.322-.21-.483-.21-.167 0-.328.07-.483.21-.155.14-.283.273-.374.387l-5.307 6.941zm33.815.089c-.213.21-.464.311-.766.311-.303 0-.554-.102-.767-.311a1.013 1.013 0 0 1-.316-.756V14.84H76.615v2.711c0 .299-.103.546-.316.756-.212.21-.463.311-.766.311s-.554-.102-.766-.311a1.013 1.013 0 0 1-.316-.756V9.995c0-.299.103-.546.316-.756.212-.21.463-.311.766-.311s.554.102.766.311c.213.21.316.457.316.756v2.711h13.327V9.995c0-.299.103-.546.315-.756.213-.21.464-.311.767-.311.302 0 .553.102.766.311.213.21.316.457.316.756v7.556c0 .299-.103.553-.316.756zm19.928-9.067c.213.209.316.456.316.755 0 .298-.103.546-.316.755a1.04 1.04 0 0 1-.766.312h-6.673v6.49c0 .298-.103.545-.316.755a1.04 1.04 0 0 1-.766.311 1.04 1.04 0 0 1-.766-.311 1.012 1.012 0 0 1-.316-.756v-6.49h-6.763a1.168 1.168 0 0 1-.702-.342.994.994 0 0 1-.29-.724c0-.299.103-.546.316-.756.212-.21.463-.311.766-.311h15.51c.303 0 .554.108.766.311zm2.57.755c0-.299.103-.546.316-.756a1.04 1.04 0 0 1 .766-.311h15.987c.303 0 .554.102.766.311.213.21.316.457.316.756 0 .298-.103.546-.316.755a1.04 1.04 0 0 1-.766.312H115.37c-.302 0-.554-.102-.766-.312a1.002 1.002 0 0 1-.316-.755zm2.751 8.623c-.329 0-.664-.07-.992-.21a2.715 2.715 0 0 1-.876-.59 3.148 3.148 0 0 1-.632-.915 2.788 2.788 0 0 1-.244-1.2v-2c0-.4.116-.667.348-.8.231-.133.599-.197 1.094-.197h15.124c.303 0 .554.102.766.311.213.21.316.458.316.756s-.103.546-.316.756a1.04 1.04 0 0 1-.766.31h-14.409v1.093c0 .146.065.28.194.387.128.115.296.165.508.165h14.203c.303 0 .554.102.766.312.213.21.316.457.316.755 0 .299-.103.546-.316.756a1.04 1.04 0 0 1-.766.311h-14.318zm17.648-4.845c0-.565.096-1.13.283-1.702a5.172 5.172 0 0 1 .825-1.556c.36-.47.798-.85 1.307-1.143.509-.298 1.089-.444 1.739-.444h13.14c.302 0 .554.102.766.311.213.21.316.457.316.756 0 .298-.103.546-.316.755-.212.21-.464.312-.766.312h-12.67c-.528 0-.953.095-1.275.279a2.324 2.324 0 0 0-1.153 1.556c-.064.317-.103.61-.103.876 0 .267.032.559.103.876a2.324 2.324 0 0 0 1.153 1.556c.322.184.747.28 1.275.28h12.67c.302 0 .554.101.766.31.213.21.316.458.316.756 0 .299-.103.546-.316.756a1.04 1.04 0 0 1-.766.311h-13.372c-.618 0-1.166-.146-1.649-.444a4.371 4.371 0 0 1-1.23-1.143 5.424 5.424 0 0 1-.779-1.569 5.828 5.828 0 0 1-.264-1.689zm72.911-4.833c2.358 0 4.722.007 7.079-.006.683-.006 1.192.197 1.262.966.058.66-.386 1.06-1.243 1.06-4.425.019-8.843.019-13.268.032-.322 0-.683-.013-.953.127-.271.14-.619.463-.619.705.007.26.329.647.593.749.419.152.908.146 1.365.152 3.91.013 7.813.02 11.723.007 1.082-.007 1.977.355 2.609 1.25.631.896.798 1.867.289 2.896-.592 1.194-1.597 1.708-2.847 1.715-4.096.019-8.192.006-12.289.006-.599 0-1.198.032-1.791-.013-.611-.044-1.146-.292-1.165-1.022-.02-.743.534-.965 1.114-1.086.232-.05.489-.019.728-.019 4.289 0 8.573 0 12.862-.006.245 0 .529.07.722-.038.277-.153.683-.458.67-.667-.02-.286-.348-.616-.619-.8-.199-.134-.521-.102-.792-.102-3.987.006-7.974.02-11.961.026-1.855 0-3.42-1.245-3.517-2.775-.103-1.708 1.218-3.13 2.963-3.144 2.364-.019 4.722-.006 7.085-.012zm-43.824.039c2.358 0 4.721-.038 7.079.013 2.17.044 3.549 2.476 2.409 4.273-.355.565-1.037.915-1.578 1.353-.174.14-.374.247-.561.368.155.21.277.45.47.61.548.45 1.179.812 1.662 1.314.226.235.387.87.239 1.06-.232.305-.741.534-1.128.521-.386-.006-.798-.305-1.153-.54-1.874-1.225-3.768-2.432-5.996-2.844-1.031-.19-2.1-.197-3.15-.235a46.277 46.277 0 0 0-3.252-.007c-.979.038-1.179.286-1.192 1.27-.006.42.026.838-.006 1.251-.071.756-.567 1.251-1.211 1.188-.709-.07-1.044-.527-1.05-1.239-.007-.61-.013-1.219.006-1.835.039-1.543 1.095-2.698 2.609-2.711 3.8-.032 7.594-.013 11.394-.025.431 0 .902.038 1.282-.115.322-.127.541-.514.811-.787-.257-.248-.476-.572-.773-.724-.27-.14-.631-.12-.953-.12-3.877.018-7.755.056-11.632.075-.541 0-1.076-.095-1.617-.088-.728.006-1.095-.432-1.069-1.074.019-.622.489-.958 1.121-.958a672.79 672.79 0 0 1 3.581-.013h3.665v.019h-.007zm21.771 9.607h-4.966c-2.435 0-4.445-1.98-4.522-4.502-.039-1.276-.019-2.553 0-3.835.006-.8.483-1.321 1.159-1.315.632.007 1.089.508 1.102 1.283.019 1.194-.007 2.388.006 3.581.02 1.639.928 2.61 2.525 2.623 3.201.025 6.402.019 9.604 0 1.256-.006 2.202-.813 2.357-2.083.122-1.01.084-2.045.116-3.073.013-.445.013-.89.045-1.334.039-.628.419-.952.998-.997.606-.044 1.082.337 1.089.896.013 1.797.084 3.62-.2 5.378-.283 1.74-1.971 3.505-4.425 3.385-1.629-.07-3.259-.007-4.888-.007z" fill="#fff"/></svg>