<svg width="11" height="12" fill="none" xmlns="http://www.w3.org/2000/svg"><g clip-path="url(#clip0)"><path d="M5.94 6.573c3.52.382 5.17 3.3 5.06 5.427H9.955c-.083-1.445-.66-2.645-1.843-3.518a4.364 4.364 0 0 0-2.722-.846C3.327 7.691 1.237 9.246 1.072 12h-.99C-.523 9.846 2.145 6.955 5.17 6.573c-1.018-.191-1.788-.627-2.338-1.418-.55-.791-.715-1.664-.522-2.591C2.64 1.036 4.097-.082 5.637 0 7.232.082 8.58 1.282 8.8 2.755c.22 1.5-.578 3.3-2.86 3.818zm-.413-1.091c1.183 0 2.228-.982 2.228-2.155 0-1.227-.99-2.236-2.228-2.236-1.21 0-2.2.982-2.227 2.155 0 1.227.99 2.236 2.227 2.236z" fill="#C8C8C8"/></g><defs><clipPath id="clip0"><path fill="#fff" d="M0 0h11v12H0z"/></clipPath></defs></svg>