<svg width="13" height="13" fill="none" xmlns="http://www.w3.org/2000/svg"><path d="M9.702 12.998c-.173 0-.433 0-.866-.086-.347-.087-.866-.174-1.386-.434-.52-.26-1.126-.606-1.906-1.04-.693-.432-1.386-1.125-2.166-1.905-.606-.606-1.126-1.126-1.559-1.732-.346-.52-.693-1.04-.953-1.473-.26-.433-.433-.866-.606-1.3-.087-.346-.173-.78-.173-1.039C0 3.642 0 3.469 0 3.209v-.26c0-.26.087-.346.173-.52.087-.173.174-.346.347-.432L2.166.35c.433-.434.953-.434 1.386-.174l.346.347 1.386 2.599c.087.346.087.606.087.866-.087.173-.26.433-.347.606l-.52.52c0 .087.087.26.087.347.087.173.26.346.433.693.174.26.52.606.867.953.346.346.693.606.953.866.26.173.52.346.693.433.26.173.346.173.346.173l.606-.606c.434-.347 1.04-.433 1.387-.26 0 0 .086 0 .086.087l2.426 1.472c.346.26.52.52.52.78.086.346-.087.606-.347.866l-1.646 1.646c-.087.087-.26.173-.433.347-.173.086-.347.086-.52.086h-.26zM.952 3.123v.26c0 .086 0 .26.088.52.086.26.086.52.173.866.173.346.26.693.52 1.126.26.433.52.866.866 1.386.346.52.866 1.04 1.386 1.646.693.693 1.386 1.3 2.079 1.732.606.347 1.213.693 1.646.866.52.174.866.347 1.213.347.606.087.693.087.866.087h.087c.086 0 .086-.087.173-.087.086 0 .086-.087.086-.087l1.733-1.646.087-.086s0-.087-.087-.087l-2.252-1.3s-.087 0-.087-.086c0 0-.173 0-.347.087l-.693.693c-.086.086-.173.086-.26.173-.086.087-.26.087-.346.087h-.087c-.086 0-.346-.087-.606-.26-.173-.087-.52-.26-.866-.52-.26-.26-.693-.606-1.04-.953-.346-.346-.693-.78-.953-1.126-.26-.346-.433-.606-.606-.866a5.967 5.967 0 0 0-.26-.693v-.087c0-.087.087-.433.173-.606l.693-.607v-.259L2.945 1.044V.957s-.086 0-.086.087L1.126 2.69c0 .086 0 .086-.086.173 0 .086-.087.173-.087.26z" fill="#fff"/></svg>