<svg width="15" height="15" fill="none" xmlns="http://www.w3.org/2000/svg"><g clip-path="url(#clip0)"><path d="M11.2 15c-.2 0-.5 0-1-.1-.4-.1-1-.2-1.6-.5-.6-.3-1.3-.7-2.2-1.2-.8-.5-1.6-1.3-2.5-2.2-.7-.7-1.3-1.3-1.8-2-.4-.6-.8-1.2-1.1-1.7-.3-.5-.5-1-.7-1.5-.1-.4-.2-.9-.2-1.2C0 4.2 0 4 0 3.7v-.3c0-.3.1-.4.2-.6.1-.2.2-.4.4-.5L2.5.4C3-.1 3.6-.1 4.1.2l.4.4 1.6 3c.1.4.1.7.1 1-.1.2-.3.5-.4.7l-.6.6c0 .1.1.3.1.4.1.2.3.4.5.8.2.3.6.7 1 1.1.4.4.8.7 1.1 1 .3.2.6.4.8.5.3.2.4.2.4.2l.7-.7c.5-.4 1.2-.5 1.6-.3 0 0 .1 0 .1.1l2.8 1.7c.4.3.6.6.6.9.1.4-.1.7-.4 1l-1.9 1.9c-.1.1-.3.2-.5.4-.2.1-.4.1-.6.1h-.3zM1.1 3.6v.3c0 .1 0 .3.1.6s.1.6.2 1c.2.4.3.8.6 1.3s.6 1 1 1.6c.4.6 1 1.2 1.6 1.9.8.8 1.6 1.5 2.4 2 .7.4 1.4.8 1.9 1 .6.2 1 .4 1.4.4.7.1.8.1 1 .1h.1c.1 0 .1-.1.2-.1s.1-.1.1-.1l2-1.9.1-.1s0-.1-.1-.1L11.1 10s-.1 0-.1-.1c0 0-.2 0-.4.1l-.8.8c-.1.1-.2.1-.3.2-.1.1-.3.1-.4.1H9c-.1 0-.4-.1-.7-.3-.2-.1-.6-.3-1-.6-.3-.3-.8-.7-1.2-1.1-.4-.4-.8-.9-1.1-1.3-.3-.4-.5-.7-.7-1-.1-.3-.2-.6-.3-.8v-.1c0-.1.1-.5.2-.7l.8-.7v-.3l-1.6-3v-.1s-.1 0-.1.1l-2 1.9c0 .1 0 .1-.1.2 0 .1-.1.2-.1.3z" fill="#313131"/></g><defs><clipPath id="clip0"><path fill="#fff" d="M0 0h15v15H0z"/></clipPath></defs></svg>