<svg width="12" height="17" fill="none" xmlns="http://www.w3.org/2000/svg"><path d="M5.493 16.54c-.315-.393-.55-.787-.787-1.18-1.181-1.811-2.362-3.7-3.307-5.59C.927 8.826.455 7.88.22 6.857c-.394-1.338-.237-2.597.315-3.7C1.399 1.426 2.738.481 4.627.087c2.913-.55 5.826 1.575 6.377 4.488.157.944 0 1.81-.315 2.676-.473 1.417-1.181 2.834-1.968 4.172a84.737 84.737 0 0 1-3.07 4.96c-.08 0-.08.079-.158.158zm0-1.26c0-.078.079-.078.079-.078a83.111 83.111 0 0 0 2.755-4.408A27.935 27.935 0 0 0 9.98 7.33c.315-.866.473-1.732.315-2.598C9.823 2.685 8.563 1.347 6.517.953c-2.047-.55-3.7.158-4.96 1.81-.866 1.261-1.18 2.6-.63 4.017.236.708.551 1.417.866 2.125.945 1.968 2.047 3.858 3.228 5.668l.472.709z" fill="#fff"/><path d="M5.572 6.779a1.732 1.732 0 1 0 0-3.464 1.732 1.732 0 0 0 0 3.464z" stroke="#fff" stroke-miterlimit="10"/></svg>