<svg width="15" height="22" fill="none" xmlns="http://www.w3.org/2000/svg"><path d="M6.978 21.01c-.4-.5-.7-1-1-1.5-1.5-2.3-3-4.7-4.2-7.1-.6-1.2-1.2-2.4-1.5-3.7-.5-1.7-.3-3.3.4-4.7 1.1-2.2 2.8-3.4 5.2-3.9 3.7-.7 7.4 2 8.1 5.7.2 1.2 0 2.3-.4 3.4-.6 1.8-1.5 3.6-2.5 5.3-1.2 2.1-2.5 4.2-3.9 6.3-.1 0-.1.1-.2.2zm0-1.6c0-.1.1-.1.1-.1 1.2-1.8 2.4-3.7 3.5-5.6.8-1.4 1.5-2.9 2.1-4.4.4-1.1.6-2.2.4-3.3-.6-2.6-2.2-4.3-4.8-4.8-2.6-.7-4.7.2-6.3 2.3-1.1 1.6-1.5 3.3-.8 5.1.3.9.7 1.8 1.1 2.7 1.2 2.5 2.6 4.9 4.1 7.2l.6.9z" fill="#000"/><path d="M7.078 8.61a2.2 2.2 0 1 0 0-4.4 2.2 2.2 0 0 0 0 4.4z" fill="#fff" stroke="#000" stroke-miterlimit="10"/></svg>