<svg width="149" height="149" fill="none" xmlns="http://www.w3.org/2000/svg"><g clip-path="url(#clip0)"><mask id="a" fill="#fff"><path d="M132.988 31.583v-8.068a3.52 3.52 0 0 0-1.039-2.483 3.5 3.5 0 0 0-2.483-1.039h-7.243c-.974 0-1.848.396-2.492 1.04a3.512 3.512 0 0 0-1.031 2.482v8.068h14.288zM41.75 70.808a2.186 2.186 0 0 1 0-3.086 2.172 2.172 0 0 1 3.085 0l1.989 1.989 5.518-5.527a2.186 2.186 0 0 1 3.086 3.093l-7.061 7.062c-.85.85-2.236.85-3.086 0l-3.531-3.531zm81.908-25.185a2.183 2.183 0 0 1 4.364 0v45.808a2.183 2.183 0 0 1-2.178 2.186 2.185 2.185 0 0 1-2.186-2.186V45.623zM89.25 119.471h13.43v-9.363H89.25v9.363zm15.608 4.363H33.674a2.19 2.19 0 0 1-2.186-2.186v-13.727c0-1.204.981-2.177 2.186-2.177H49.29v-12.44c0-1.204.973-2.178 2.178-2.178H69.27c1.204 0 2.178.974 2.178 2.178v3.877h15.615a2.19 2.19 0 0 1 2.186 2.186v6.377h15.608c1.205 0 2.186.973 2.186 2.177v13.727a2.188 2.188 0 0 1-2.185 2.186zm-33.41-4.363h13.43v-17.918h-13.43v17.918zm-17.794 0h13.43V95.49h-13.43v23.981zm-17.802 0H49.29v-9.363H35.852v9.363zm-9.207-76.034h87.683V23.515c0-2.17.891-4.14 2.318-5.568a7.87 7.87 0 0 1 5.577-2.318h7.243a7.86 7.86 0 0 1 5.568 2.318 7.865 7.865 0 0 1 2.318 5.568v19.922h9.47c1.205 0 2.178.982 2.178 2.186v85.569a2.176 2.176 0 0 1-2.178 2.178H86.396a2.183 2.183 0 0 1 0-4.364h58.24V47.801h-7.284v15.781a2.19 2.19 0 0 1-2.186 2.186 2.183 2.183 0 0 1-2.178-2.186V35.947H118.7v65.161h14.288V73.473c0-1.205.973-2.186 2.178-2.186a2.19 2.19 0 0 1 2.186 2.186v29.813c0 .527-.14.792-.371 1.237l-9.19 18.099a2.22 2.22 0 0 1-.973.973 2.173 2.173 0 0 1-2.921-.965l-9.223-18.148c-.214-.437-.346-.685-.346-1.196V47.801H26.645v16.515a2.183 2.183 0 0 1-2.178 2.186 2.19 2.19 0 0 1-2.186-2.186V21.758a11.576 11.576 0 0 0-6.195-1.765 11.712 11.712 0 0 0-8.29 3.432 11.711 11.711 0 0 0-3.433 8.29v74.557c.116-.124.232-.248.347-.363a16.043 16.043 0 0 1 11.376-4.71c1.774 0 3.49.297 5.115.833.363.124.726.264 1.08.412V74.207a2.19 2.19 0 0 1 2.186-2.186c1.205 0 2.178.982 2.178 2.186v31.983a2.18 2.18 0 0 1-3.498 1.732 11.42 11.42 0 0 0-3.332-1.757 11.688 11.688 0 0 0-3.729-.602 11.713 11.713 0 0 0-8.29 3.432 11.693 11.693 0 0 0-3.433 8.29 11.68 11.68 0 0 0 3.432 8.29 11.712 11.712 0 0 0 8.291 3.432h60.427a2.183 2.183 0 0 1 0 4.364H16.086a16.043 16.043 0 0 1-11.376-4.71A16.03 16.03 0 0 1 0 117.285v-85.57c0-4.438 1.798-8.464 4.71-11.376a16.042 16.042 0 0 1 11.376-4.71 16.17 16.17 0 0 1 9.586 3.167 2.2 2.2 0 0 1 .973 1.824v22.817zm104.974 62.035h-11.558l5.783 11.375 5.775-11.375zm-29.17-48.811a2.183 2.183 0 0 1 0 4.364H72.908a2.183 2.183 0 0 1 0-4.364h29.541zM90.166 77.498c1.212 0 2.186.974 2.186 2.178a2.185 2.185 0 0 1-2.186 2.186H72.908a2.183 2.183 0 0 1 0-4.364h17.258zm12.283-10.419c1.204 0 2.178.974 2.178 2.187a2.176 2.176 0 0 1-2.178 2.177H72.908a2.176 2.176 0 0 1-2.178-2.177c0-1.213.974-2.187 2.178-2.187h29.541zM36.091 54.574h25.004c1.204 0 2.177.981 2.177 2.186v25.003a2.183 2.183 0 0 1-2.177 2.186H36.09a2.184 2.184 0 0 1-2.186-2.186V56.76c0-1.205.973-2.186 2.186-2.186zm22.818 4.372h-20.64v20.64h20.64v-20.64z"/></mask><path d="M132.988 31.583v-8.068a3.52 3.52 0 0 0-1.039-2.483 3.5 3.5 0 0 0-2.483-1.039h-7.243c-.974 0-1.848.396-2.492 1.04a3.512 3.512 0 0 0-1.031 2.482v8.068h14.288zM41.75 70.808a2.186 2.186 0 0 1 0-3.086 2.172 2.172 0 0 1 3.085 0l1.989 1.989 5.518-5.527a2.186 2.186 0 0 1 3.086 3.093l-7.061 7.062c-.85.85-2.236.85-3.086 0l-3.531-3.531zm81.908-25.185a2.183 2.183 0 0 1 4.364 0v45.808a2.183 2.183 0 0 1-2.178 2.186 2.185 2.185 0 0 1-2.186-2.186V45.623zM89.25 119.471h13.43v-9.363H89.25v9.363zm15.608 4.363H33.674a2.19 2.19 0 0 1-2.186-2.186v-13.727c0-1.204.981-2.177 2.186-2.177H49.29v-12.44c0-1.204.973-2.178 2.178-2.178H69.27c1.204 0 2.178.974 2.178 2.178v3.877h15.615a2.19 2.19 0 0 1 2.186 2.186v6.377h15.608c1.205 0 2.186.973 2.186 2.177v13.727a2.188 2.188 0 0 1-2.185 2.186zm-33.41-4.363h13.43v-17.918h-13.43v17.918zm-17.794 0h13.43V95.49h-13.43v23.981zm-17.802 0H49.29v-9.363H35.852v9.363zm-9.207-76.034h87.683V23.515c0-2.17.891-4.14 2.318-5.568a7.87 7.87 0 0 1 5.577-2.318h7.243a7.86 7.86 0 0 1 5.568 2.318 7.865 7.865 0 0 1 2.318 5.568v19.922h9.47c1.205 0 2.178.982 2.178 2.186v85.569a2.176 2.176 0 0 1-2.178 2.178H86.396a2.183 2.183 0 0 1 0-4.364h58.24V47.801h-7.284v15.781a2.19 2.19 0 0 1-2.186 2.186 2.183 2.183 0 0 1-2.178-2.186V35.947H118.7v65.161h14.288V73.473c0-1.205.973-2.186 2.178-2.186a2.19 2.19 0 0 1 2.186 2.186v29.813c0 .527-.14.792-.371 1.237l-9.19 18.099a2.22 2.22 0 0 1-.973.973 2.173 2.173 0 0 1-2.921-.965l-9.223-18.148c-.214-.437-.346-.685-.346-1.196V47.801H26.645v16.515a2.183 2.183 0 0 1-2.178 2.186 2.19 2.19 0 0 1-2.186-2.186V21.758a11.576 11.576 0 0 0-6.195-1.765 11.712 11.712 0 0 0-8.29 3.432 11.711 11.711 0 0 0-3.433 8.29v74.557c.116-.124.232-.248.347-.363a16.043 16.043 0 0 1 11.376-4.71c1.774 0 3.49.297 5.115.833.363.124.726.264 1.08.412V74.207a2.19 2.19 0 0 1 2.186-2.186c1.205 0 2.178.982 2.178 2.186v31.983a2.18 2.18 0 0 1-3.498 1.732 11.42 11.42 0 0 0-3.332-1.757 11.688 11.688 0 0 0-3.729-.602 11.713 11.713 0 0 0-8.29 3.432 11.693 11.693 0 0 0-3.433 8.29 11.68 11.68 0 0 0 3.432 8.29 11.712 11.712 0 0 0 8.291 3.432h60.427a2.183 2.183 0 0 1 0 4.364H16.086a16.043 16.043 0 0 1-11.376-4.71A16.03 16.03 0 0 1 0 117.285v-85.57c0-4.438 1.798-8.464 4.71-11.376a16.042 16.042 0 0 1 11.376-4.71 16.17 16.17 0 0 1 9.586 3.167 2.2 2.2 0 0 1 .973 1.824v22.817zm104.974 62.035h-11.558l5.783 11.375 5.775-11.375zm-29.17-48.811a2.183 2.183 0 0 1 0 4.364H72.908a2.183 2.183 0 0 1 0-4.364h29.541zM90.166 77.498c1.212 0 2.186.974 2.186 2.178a2.185 2.185 0 0 1-2.186 2.186H72.908a2.183 2.183 0 0 1 0-4.364h17.258zm12.283-10.419c1.204 0 2.178.974 2.178 2.187a2.176 2.176 0 0 1-2.178 2.177H72.908a2.176 2.176 0 0 1-2.178-2.177c0-1.213.974-2.187 2.178-2.187h29.541zM36.091 54.574h25.004c1.204 0 2.177.981 2.177 2.186v25.003a2.183 2.183 0 0 1-2.177 2.186H36.09a2.184 2.184 0 0 1-2.186-2.186V56.76c0-1.205.973-2.186 2.186-2.186zm22.818 4.372h-20.64v20.64h20.64v-20.64z" fill="#000" stroke="#fff" stroke-width="1.6" mask="url(#a)"/></g><defs><clipPath id="clip0"><path fill="#fff" d="M0 0h149v149H0z"/></clipPath></defs></svg>