<svg width="12" height="9" fill="none" xmlns="http://www.w3.org/2000/svg"><g clip-path="url(#clip0)" fill="#fff"><path d="M11.012 8.894H.988A.965.965 0 0 1 0 7.906V.988C0 .424.424 0 .988 0h10.094c.494 0 .918.424.918.988v6.988c0 .495-.424.918-.988.918zM.988.776c-.14 0-.14.071-.14.142v6.988c0 .141.07.141.14.141h10.094c.141 0 .141-.07.141-.141V.988c0-.14-.07-.14-.14-.14H.987V.775z"/><path d="M5.93 5.082c-.071 0-.142 0-.212-.07L.494 1.482C.353 1.412.353 1.2.424.988.494.776.777.776.988.847L5.93 4.235 11.153.847c.141-.141.423-.07.565.141.14.141.07.424-.142.565l-5.435 3.53c0-.071-.141 0-.212 0z"/></g><defs><clipPath id="clip0"><path fill="#fff" d="M0 0h12v8.894H0z"/></clipPath></defs></svg>