<svg width="15" height="11" fill="none" xmlns="http://www.w3.org/2000/svg"><g clip-path="url(#clip0)" fill="#313131"><path d="M13.765 11H1.235C.53 11 0 10.476 0 9.778V1.222C0 .524.53 0 1.235 0h12.618C14.47 0 15 .524 15 1.222v8.643c0 .611-.53 1.135-1.235 1.135zM1.235.96c-.176 0-.176.088-.176.175v8.643c0 .174.088.174.176.174h12.618c.176 0 .176-.087.176-.174V1.222c0-.174-.088-.174-.176-.174H1.235V.96z"/><path d="M7.412 6.286c-.088 0-.177 0-.265-.088L.617 1.833c-.176-.087-.176-.349-.088-.61.089-.263.442-.263.706-.175l6.177 4.19 6.53-4.19c.176-.175.529-.088.705.174.176.175.088.524-.176.699L7.676 6.286c0-.088-.176 0-.264 0z"/></g><defs><clipPath id="clip0"><path fill="#fff" d="M0 0h15v11H0z"/></clipPath></defs></svg>