<svg width="153" height="153" fill="none" xmlns="http://www.w3.org/2000/svg"><path d="M38.25 17.134c11.641 0 21.116 9.472 21.116 21.116S49.89 59.366 38.25 59.366 17.134 49.894 17.134 38.25 26.61 17.134 38.25 17.134zM21.116 38.25c0 9.446 7.685 17.134 17.134 17.134 9.449 0 17.134-7.688 17.134-17.134 0-9.446-7.685-17.134-17.134-17.134-9.449 0-17.134 7.688-17.134 17.134z" fill="#000" stroke="#fff" stroke-width=".8"/><path d="M26.697 38.25c0-6.37 5.183-11.553 11.553-11.553 6.37 0 11.553 5.183 11.553 11.553 0 6.37-5.183 11.553-11.553 11.553-6.37 0-11.553-5.183-11.553-11.553zm3.981 0c0 4.175 3.397 7.572 7.572 7.572 4.175 0 7.572-3.397 7.572-7.572 0-4.175-3.397-7.572-7.572-7.572-4.175 0-7.572 3.397-7.572 7.572z" fill="#000" stroke="#fff" stroke-width=".8"/><mask id="a" fill="#fff"><path d="M126.703 124.312c0-3.954 3.218-7.171 7.172-7.171h16.739l-.019-7.973-.476-.636c-5.02-6.682-12.684-10.516-21.025-10.516V31.078c0-3.954-3.218-7.172-7.172-7.172h-4.781v-7.611c2.775-.99 4.781-3.62 4.781-6.733 0-3.954-3.218-7.171-7.172-7.171-3.954 0-7.172 3.217-7.172 7.171 0 3.113 2.006 5.743 4.781 6.732v7.612H93.234v-7.611c2.776-.99 4.782-3.62 4.782-6.733 0-3.954-3.218-7.171-7.172-7.171-3.954 0-7.172 3.217-7.172 7.171 0 3.113 2.006 5.743 4.781 6.732v7.612h-9.562v4.782h43.031a2.393 2.393 0 0 1 2.39 2.39v21.516h-57.07l-.787-1.325a32.62 32.62 0 0 0 .956-2.285l6.698-1.705V29.22l-6.698-1.705a31.51 31.51 0 0 0-.956-2.286l3.538-5.95-12.771-12.77-5.95 3.535a32.18 32.18 0 0 0-2.286-.956L47.28 2.39H29.22l-1.703 6.698c-.762.285-1.527.605-2.285.956L19.278 6.51 6.508 19.278l3.537 5.95a32.65 32.65 0 0 0-.956 2.286L2.391 29.22v18.06l6.698 1.705c.285.76.603 1.528.956 2.286l-3.538 5.95 12.771 12.77 5.95-3.535c.758.351 1.523.672 2.286.956l1.707 6.696h18.06l1.705-6.698a32.146 32.146 0 0 0 2.286-.956l1.322.786v11.65h-36.3c-.99-2.776-3.619-4.782-6.732-4.782-3.954 0-7.171 3.218-7.171 7.172 0 3.954 3.217 7.172 7.171 7.172 3.113 0 5.743-2.006 6.732-4.781h36.3v11.953H28.248c-.99-2.775-3.62-4.781-6.732-4.781-3.954 0-7.172 3.218-7.172 7.172 0 3.954 3.217 7.172 7.172 7.172 3.112 0 5.742-2.006 6.732-4.782h24.346v9.563h-35.86c-7.91 0-14.343 6.433-14.343 14.343 0 7.911 6.433 14.344 14.343 14.344h86.768c2.121 0 4.095.911 5.42 2.496a26.207 26.207 0 0 0 20.172 9.457c8.343 0 16.007-3.834 21.025-10.516l.476-.636.019-7.973h-16.739c-3.954 0-7.172-3.217-7.172-7.172zM114.75 7.172a2.394 2.394 0 0 1 2.391 2.39 2.394 2.394 0 0 1-2.391 2.391 2.393 2.393 0 0 1-2.391-2.39 2.394 2.394 0 0 1 2.391-2.391zm-23.906 0a2.393 2.393 0 0 1 2.39 2.39 2.393 2.393 0 0 1-2.39 2.391 2.393 2.393 0 0 1-2.39-2.39 2.393 2.393 0 0 1 2.39-2.391zm-81.281 76.5a2.393 2.393 0 0 1-2.391-2.39 2.393 2.393 0 0 1 2.39-2.391 2.393 2.393 0 0 1 2.391 2.39c0 1.32-1.073 2.39-2.39 2.39zm11.953 16.734a2.393 2.393 0 0 1-2.391-2.39 2.393 2.393 0 0 1 2.39-2.391 2.393 2.393 0 0 1 2.391 2.39 2.393 2.393 0 0 1-2.39 2.391zm48.321-43.031h54.475v23.906H57.375V69.837l12.462-12.462zM50.28 61.614a26.304 26.304 0 0 1-4.024 1.683l-1.262.401-1.43 5.63H32.938l-1.432-5.627-1.262-.402a26.314 26.314 0 0 1-4.024-1.683l-1.178-.612-5.011 2.979-7.514-7.514 2.979-5.008-.607-1.177a26.237 26.237 0 0 1-1.683-4.03l-.407-1.262-5.627-1.428V32.938l5.627-1.43.404-1.262a26.237 26.237 0 0 1 1.683-4.03l.608-1.177-2.977-5.008 7.514-7.514 5.01 2.979 1.18-.612a26.314 26.314 0 0 1 4.023-1.683l1.262-.402 1.43-5.627h10.626l1.432 5.627 1.262.402a26.25 26.25 0 0 1 4.024 1.683l1.178.612 5.011-2.979 7.514 7.514-2.979 5.008.607 1.177a26.237 26.237 0 0 1 1.683 4.03l.404 1.262 5.63 1.428v10.626l-5.627 1.43-.404 1.262a26.237 26.237 0 0 1-1.683 4.03l-.608 1.177 2.98 5.008-6.946 6.942h-1.53l-4.052-2.41-1.178.613zm7.095 24.449h66.937v12.426a26.242 26.242 0 0 0-5.089 1.492c.182-.629.308-1.28.308-1.965 0-3.955-3.218-7.172-7.172-7.172-3.954 0-7.171 3.218-7.171 7.172 0 3.564 2.62 6.507 6.033 7.057a26.36 26.36 0 0 0-2.297 2.4c-1.324 1.585-3.301 2.496-5.422 2.496H57.375V86.063zm54.984 14.343a2.392 2.392 0 0 1-2.39-2.39 2.393 2.393 0 0 1 2.39-2.391 2.393 2.393 0 0 1 2.391 2.39 2.393 2.393 0 0 1-2.391 2.391zm33.46 37.428c-4.108 5.09-10.158 7.994-16.725 7.994a21.441 21.441 0 0 1-16.5-7.738c-2.236-2.678-5.549-4.215-9.092-4.215H16.734c-5.273 0-9.562-4.289-9.562-9.563 0-5.273 4.289-9.562 9.562-9.562h86.768c3.541 0 6.856-1.537 9.092-4.215a21.441 21.441 0 0 1 16.5-7.738c6.564 0 12.617 2.904 16.725 7.994l.004 1.568h-11.948c-6.591 0-11.953 5.363-11.953 11.953 0 6.591 5.362 11.954 11.953 11.954h11.948l-.004 1.568z"/></mask><path d="M126.703 124.312c0-3.954 3.218-7.171 7.172-7.171h16.739l-.019-7.973-.476-.636c-5.02-6.682-12.684-10.516-21.025-10.516V31.078c0-3.954-3.218-7.172-7.172-7.172h-4.781v-7.611c2.775-.99 4.781-3.62 4.781-6.733 0-3.954-3.218-7.171-7.172-7.171-3.954 0-7.172 3.217-7.172 7.171 0 3.113 2.006 5.743 4.781 6.732v7.612H93.234v-7.611c2.776-.99 4.782-3.62 4.782-6.733 0-3.954-3.218-7.171-7.172-7.171-3.954 0-7.172 3.217-7.172 7.171 0 3.113 2.006 5.743 4.781 6.732v7.612h-9.562v4.782h43.031a2.393 2.393 0 0 1 2.39 2.39v21.516h-57.07l-.787-1.325a32.62 32.62 0 0 0 .956-2.285l6.698-1.705V29.22l-6.698-1.705a31.51 31.51 0 0 0-.956-2.286l3.538-5.95-12.771-12.77-5.95 3.535a32.18 32.18 0 0 0-2.286-.956L47.28 2.39H29.22l-1.703 6.698c-.762.285-1.527.605-2.285.956L19.278 6.51 6.508 19.278l3.537 5.95a32.65 32.65 0 0 0-.956 2.286L2.391 29.22v18.06l6.698 1.705c.285.76.603 1.528.956 2.286l-3.538 5.95 12.771 12.77 5.95-3.535c.758.351 1.523.672 2.286.956l1.707 6.696h18.06l1.705-6.698a32.146 32.146 0 0 0 2.286-.956l1.322.786v11.65h-36.3c-.99-2.776-3.619-4.782-6.732-4.782-3.954 0-7.171 3.218-7.171 7.172 0 3.954 3.217 7.172 7.171 7.172 3.113 0 5.743-2.006 6.732-4.781h36.3v11.953H28.248c-.99-2.775-3.62-4.781-6.732-4.781-3.954 0-7.172 3.218-7.172 7.172 0 3.954 3.217 7.172 7.172 7.172 3.112 0 5.742-2.006 6.732-4.782h24.346v9.563h-35.86c-7.91 0-14.343 6.433-14.343 14.343 0 7.911 6.433 14.344 14.343 14.344h86.768c2.121 0 4.095.911 5.42 2.496a26.207 26.207 0 0 0 20.172 9.457c8.343 0 16.007-3.834 21.025-10.516l.476-.636.019-7.973h-16.739c-3.954 0-7.172-3.217-7.172-7.172zM114.75 7.172a2.394 2.394 0 0 1 2.391 2.39 2.394 2.394 0 0 1-2.391 2.391 2.393 2.393 0 0 1-2.391-2.39 2.394 2.394 0 0 1 2.391-2.391zm-23.906 0a2.393 2.393 0 0 1 2.39 2.39 2.393 2.393 0 0 1-2.39 2.391 2.393 2.393 0 0 1-2.39-2.39 2.393 2.393 0 0 1 2.39-2.391zm-81.281 76.5a2.393 2.393 0 0 1-2.391-2.39 2.393 2.393 0 0 1 2.39-2.391 2.393 2.393 0 0 1 2.391 2.39c0 1.32-1.073 2.39-2.39 2.39zm11.953 16.734a2.393 2.393 0 0 1-2.391-2.39 2.393 2.393 0 0 1 2.39-2.391 2.393 2.393 0 0 1 2.391 2.39 2.393 2.393 0 0 1-2.39 2.391zm48.321-43.031h54.475v23.906H57.375V69.837l12.462-12.462zM50.28 61.614a26.304 26.304 0 0 1-4.024 1.683l-1.262.401-1.43 5.63H32.938l-1.432-5.627-1.262-.402a26.314 26.314 0 0 1-4.024-1.683l-1.178-.612-5.011 2.979-7.514-7.514 2.979-5.008-.607-1.177a26.237 26.237 0 0 1-1.683-4.03l-.407-1.262-5.627-1.428V32.938l5.627-1.43.404-1.262a26.237 26.237 0 0 1 1.683-4.03l.608-1.177-2.977-5.008 7.514-7.514 5.01 2.979 1.18-.612a26.314 26.314 0 0 1 4.023-1.683l1.262-.402 1.43-5.627h10.626l1.432 5.627 1.262.402a26.25 26.25 0 0 1 4.024 1.683l1.178.612 5.011-2.979 7.514 7.514-2.979 5.008.607 1.177a26.237 26.237 0 0 1 1.683 4.03l.404 1.262 5.63 1.428v10.626l-5.627 1.43-.404 1.262a26.237 26.237 0 0 1-1.683 4.03l-.608 1.177 2.98 5.008-6.946 6.942h-1.53l-4.052-2.41-1.178.613zm7.095 24.449h66.937v12.426a26.242 26.242 0 0 0-5.089 1.492c.182-.629.308-1.28.308-1.965 0-3.955-3.218-7.172-7.172-7.172-3.954 0-7.171 3.218-7.171 7.172 0 3.564 2.62 6.507 6.033 7.057a26.36 26.36 0 0 0-2.297 2.4c-1.324 1.585-3.301 2.496-5.422 2.496H57.375V86.063zm54.984 14.343a2.392 2.392 0 0 1-2.39-2.39 2.393 2.393 0 0 1 2.39-2.391 2.393 2.393 0 0 1 2.391 2.39 2.393 2.393 0 0 1-2.391 2.391zm33.46 37.428c-4.108 5.09-10.158 7.994-16.725 7.994a21.441 21.441 0 0 1-16.5-7.738c-2.236-2.678-5.549-4.215-9.092-4.215H16.734c-5.273 0-9.562-4.289-9.562-9.563 0-5.273 4.289-9.562 9.562-9.562h86.768c3.541 0 6.856-1.537 9.092-4.215a21.441 21.441 0 0 1 16.5-7.738c6.564 0 12.617 2.904 16.725 7.994l.004 1.568h-11.948c-6.591 0-11.953 5.363-11.953 11.953 0 6.591 5.362 11.954 11.953 11.954h11.948l-.004 1.568z" fill="#000" stroke="#fff" stroke-width="1.6" mask="url(#a)"/><path d="M112.359 33.869a6.78 6.78 0 0 1 6.772 6.772 6.78 6.78 0 0 1-6.772 6.772c-3.733 0-6.771-3.04-6.771-6.772a6.78 6.78 0 0 1 6.771-6.772zm0 3.981a2.792 2.792 0 0 0-2.79 2.79 2.793 2.793 0 0 0 2.79 2.791 2.793 2.793 0 0 0 2.791-2.79 2.793 2.793 0 0 0-2.791-2.791zm-19.125-3.981a6.78 6.78 0 0 1 6.772 6.772 6.78 6.78 0 0 1-6.772 6.772 6.78 6.78 0 0 1-6.771-6.772 6.78 6.78 0 0 1 6.771-6.772zm0 3.981a2.793 2.793 0 0 0-2.79 2.79c0 1.541 1.252 2.791 2.79 2.791s2.791-1.25 2.791-2.79a2.793 2.793 0 0 0-2.79-2.791zm1.991 31.478a6.78 6.78 0 0 1-6.772 6.772 6.78 6.78 0 0 1-6.772-6.772 6.78 6.78 0 0 1 6.772-6.772 6.78 6.78 0 0 1 6.772 6.772zm-3.981 0c0-1.54-1.253-2.79-2.79-2.79a2.793 2.793 0 0 0-2.791 2.79c0 1.54 1.252 2.79 2.79 2.79s2.79-1.25 2.79-2.79zm-15.144 0a6.78 6.78 0 0 1-6.772 6.772 6.78 6.78 0 0 1-6.772-6.772 6.78 6.78 0 0 1 6.772-6.772 6.78 6.78 0 0 1 6.772 6.772zm-3.981 0c0-1.54-1.253-2.79-2.79-2.79a2.793 2.793 0 0 0-2.791 2.79c0 1.54 1.252 2.79 2.79 2.79s2.79-1.25 2.79-2.79zm14.344 28.688a6.78 6.78 0 0 1 6.771-6.772 6.78 6.78 0 0 1 6.772 6.772 6.78 6.78 0 0 1-6.772 6.772c-3.733 0-6.771-3.039-6.771-6.772zm3.98 0c0 1.54 1.254 2.79 2.791 2.79a2.793 2.793 0 0 0 2.791-2.79 2.793 2.793 0 0 0-2.79-2.791 2.793 2.793 0 0 0-2.791 2.79zm-27.887-6.772h3.981v3.981h-3.98v-3.981zm0 9.562h3.981v3.981h-3.98v-3.981zm52.594-38.25h3.981v3.981h-3.981v-3.98zm0 9.563h3.981V76.1h-3.981v-3.981z" fill="#000" stroke="#fff" stroke-width=".8"/></svg>