<svg width="151" height="151" viewBox="0 0 151 151" fill="none" xmlns="http://www.w3.org/2000/svg">
<mask id="path-1-inside-1" fill="white">
<path d="M17.7567 40.9313H14.8809C12.0048 40.9313 9.39651 42.1104 7.49898 44.0079C5.60116 45.9061 4.42235 48.5141 4.42235 51.3895V60.1092C4.42235 61.3299 3.43584 62.3158 2.21545 62.3158C0.995067 62.3158 0 61.3299 0 60.1092V51.3895C0 47.2934 1.67191 43.5729 4.37222 40.8812C6.91356 38.3398 10.3662 36.701 14.1866 36.5258C13.0332 34.3938 12.3811 31.9607 12.3811 29.378V15.5167C12.3811 12.9173 13.4428 10.5514 15.1563 8.83703C16.8704 7.12354 19.2363 6.06182 21.8363 6.06182H33.2309C35.8309 6.06182 38.1971 7.12354 39.9106 8.83703C41.6161 10.5514 42.6779 12.917 42.6779 15.5167V29.378C42.6779 31.953 42.034 34.3855 40.8889 36.5093H42.5858C43.798 36.5093 44.9936 36.6762 46.1054 37.1112C47.2341 37.5456 48.2708 38.2142 49.1652 39.1087L69.614 59.532L76.1099 53.0281C76.979 52.167 78.3755 52.167 79.2449 53.0281C80.1058 53.8973 80.1058 55.2937 79.2449 56.1549L72.7407 62.6588L75.9509 65.8696C77.0463 66.9561 77.7986 68.4278 78.1915 69.9074L94.0005 54.14C94.4016 53.6722 95.0035 53.3797 95.6724 53.3797C96.893 53.3797 97.8878 54.3659 97.8878 55.5863V85.6152H122.751V56.4392C122.751 55.2185 123.737 54.2231 124.966 54.2231C126.187 54.2231 127.173 55.2185 127.173 56.4392V85.6152H134.781V51.3895C134.781 48.5141 133.603 45.9058 131.713 44.0079C129.815 42.1104 127.198 40.9313 124.331 40.9313H122.291C119.65 43.1721 116.238 44.5261 112.518 44.5261C108.798 44.5261 105.379 43.1718 102.737 40.9231C100.296 40.8897 95.1878 40.2123 92.9222 42.4776L86.7861 48.614C85.9164 49.4752 84.5199 49.4752 83.659 48.614C82.7896 47.7529 82.7896 46.3484 83.659 45.4873L90.0296 39.1084C90.9241 38.2225 91.9608 37.5536 93.0977 37.1109C94.2264 36.6759 95.4217 36.4756 96.6256 36.509H99.1669C98.0217 34.3852 97.3696 31.9527 97.3696 29.3777V15.5164C97.3696 12.917 98.4314 10.5511 100.145 8.83674C101.859 7.12324 104.225 6.06152 106.825 6.06152H118.219C120.819 6.06152 123.185 7.12324 124.899 8.83674C126.604 10.5511 127.675 12.9167 127.675 15.5164V29.3777C127.675 31.986 127.006 34.4439 125.836 36.5839C129.33 36.9434 132.474 38.5153 134.839 40.8809C137.531 43.5726 139.203 47.2931 139.203 51.3892V85.6152H148.792C150.013 85.6152 150.999 86.61 150.999 87.8307V104.484C150.999 105.705 150.013 106.699 148.792 106.699H139.203V142.723C139.203 143.943 138.217 144.938 136.996 144.938H11.1941C9.97337 144.938 8.98716 143.943 8.98716 142.723V89.8205C6.78025 89.3775 4.80693 88.291 3.27717 86.7613C1.25401 84.7375 0 81.937 0 78.8438V70.1247C0 68.9041 0.994772 67.9175 2.21545 67.9175C3.43614 67.9175 4.42235 68.9044 4.42235 70.1247V78.8438C4.42235 80.7166 5.18296 82.4053 6.40364 83.6345C7.63258 84.8632 9.32985 85.6155 11.1941 85.6155H12.0299V56.4395C12.0299 55.2188 13.0249 54.2234 14.2456 54.2234C15.466 54.2234 16.4525 55.2188 16.4525 56.4395V85.6155H41.3239V55.5866C41.3239 54.3659 42.3104 53.38 43.5308 53.38C44.2079 53.38 44.8016 53.6725 45.2109 54.1488L66.4539 75.3664C67.3233 76.2355 68.4437 76.662 69.5806 76.662C70.7512 76.662 71.9382 76.211 72.8829 75.3245L72.9834 75.2328C73.8694 74.3383 74.1702 73.1592 74.0867 72.0308C74.0033 70.8355 73.5349 69.7319 72.8997 69.0545L72.8413 68.9964C63.9128 60.0762 54.9841 51.156 46.0556 42.2358C44.9523 41.1322 43.9236 40.9316 42.4525 40.9316H37.3023C34.6607 43.1724 31.2499 44.5264 27.5295 44.5264C23.8179 44.5264 20.3986 43.1721 17.7567 40.9313V40.9313ZM123.244 25.2232C119.842 25.7496 114.082 25.7912 109.35 21.5446C107.72 22.5226 105.053 23.6513 101.793 23.3165V29.378C101.793 32.329 103.005 35.004 104.953 36.9522C106.892 38.8999 109.576 40.1038 112.519 40.1038C115.47 40.1038 118.153 38.8999 120.093 36.9522C122.041 35.0043 123.244 32.329 123.244 29.378V25.2232ZM101.792 18.8779C104.033 19.2454 106.474 18.4931 108.163 16.9966C109.082 16.203 110.479 16.303 111.273 17.2225C115.186 21.7201 120.653 21.2939 123.244 20.7587V15.5167C123.244 14.1377 122.685 12.8751 121.765 11.9638C120.853 11.0525 119.599 10.4839 118.22 10.4839H106.825C105.445 10.4839 104.191 11.0525 103.272 11.9638C102.36 12.8751 101.792 14.1377 101.792 15.5167V18.8779H101.792ZM16.8038 23.4088C16.8288 24.7717 17.3222 26.0003 18.2834 26.9703C19.203 27.8816 20.457 28.4414 21.8366 28.4414H33.2312C34.6109 28.4414 35.8649 27.8816 36.7762 26.9703C37.6875 26.059 38.2558 24.805 38.2558 23.4253V15.5167C38.2558 14.1377 37.6957 12.8751 36.7762 11.9638C35.8649 11.0525 34.6109 10.4839 33.2312 10.4839H21.8366C20.457 10.4839 19.203 11.0525 18.2834 11.9638C17.3721 12.8751 16.8038 14.1377 16.8038 15.5167V23.4088ZM38.0381 31.5513C36.6252 32.3871 34.9783 32.8723 33.2309 32.8723H21.8366C20.0809 32.8723 18.4424 32.3871 17.0294 31.5513C17.4644 33.6332 18.5007 35.4971 19.9553 36.9519C21.9033 38.8996 24.5868 40.1035 27.5298 40.1035C30.4811 40.1035 33.1643 38.8996 35.104 36.9519C36.5585 35.4971 37.6034 33.6332 38.0381 31.5513V31.5513ZM95.5978 106.699C94.3771 106.699 93.3823 105.705 93.3823 104.484C93.3823 103.263 94.3771 102.277 95.5978 102.277H146.577V90.0382C112.97 90.0382 79.354 90.0382 45.7462 90.0382V102.277H84.9298C86.1505 102.277 87.1456 103.264 87.1456 104.484C87.1456 105.705 86.1505 106.699 84.9298 106.699H45.7462V140.516H134.781V106.699H95.5978ZM45.7462 85.6155H93.4572V60.9117L76.9124 77.4061C74.906 79.4042 72.4148 81.0846 69.5806 81.0846C67.3236 81.0846 65.0831 80.232 63.3442 78.4931L45.7462 60.912V85.6155ZM25.1554 140.516V99.6104C25.1554 98.3898 26.1419 97.4032 27.3626 97.4032C28.5829 97.4032 29.578 98.3901 29.578 99.6104V140.516H41.3239V90.0382H13.4095V140.516H25.1554Z"/>
</mask>
<path d="M17.7567 40.9313H14.8809C12.0048 40.9313 9.39651 42.1104 7.49898 44.0079C5.60116 45.9061 4.42235 48.5141 4.42235 51.3895V60.1092C4.42235 61.3299 3.43584 62.3158 2.21545 62.3158C0.995067 62.3158 0 61.3299 0 60.1092V51.3895C0 47.2934 1.67191 43.5729 4.37222 40.8812C6.91356 38.3398 10.3662 36.701 14.1866 36.5258C13.0332 34.3938 12.3811 31.9607 12.3811 29.378V15.5167C12.3811 12.9173 13.4428 10.5514 15.1563 8.83703C16.8704 7.12354 19.2363 6.06182 21.8363 6.06182H33.2309C35.8309 6.06182 38.1971 7.12354 39.9106 8.83703C41.6161 10.5514 42.6779 12.917 42.6779 15.5167V29.378C42.6779 31.953 42.034 34.3855 40.8889 36.5093H42.5858C43.798 36.5093 44.9936 36.6762 46.1054 37.1112C47.2341 37.5456 48.2708 38.2142 49.1652 39.1087L69.614 59.532L76.1099 53.0281C76.979 52.167 78.3755 52.167 79.2449 53.0281C80.1058 53.8973 80.1058 55.2937 79.2449 56.1549L72.7407 62.6588L75.9509 65.8696C77.0463 66.9561 77.7986 68.4278 78.1915 69.9074L94.0005 54.14C94.4016 53.6722 95.0035 53.3797 95.6724 53.3797C96.893 53.3797 97.8878 54.3659 97.8878 55.5863V85.6152H122.751V56.4392C122.751 55.2185 123.737 54.2231 124.966 54.2231C126.187 54.2231 127.173 55.2185 127.173 56.4392V85.6152H134.781V51.3895C134.781 48.5141 133.603 45.9058 131.713 44.0079C129.815 42.1104 127.198 40.9313 124.331 40.9313H122.291C119.65 43.1721 116.238 44.5261 112.518 44.5261C108.798 44.5261 105.379 43.1718 102.737 40.9231C100.296 40.8897 95.1878 40.2123 92.9222 42.4776L86.7861 48.614C85.9164 49.4752 84.5199 49.4752 83.659 48.614C82.7896 47.7529 82.7896 46.3484 83.659 45.4873L90.0296 39.1084C90.9241 38.2225 91.9608 37.5536 93.0977 37.1109C94.2264 36.6759 95.4217 36.4756 96.6256 36.509H99.1669C98.0217 34.3852 97.3696 31.9527 97.3696 29.3777V15.5164C97.3696 12.917 98.4314 10.5511 100.145 8.83674C101.859 7.12324 104.225 6.06152 106.825 6.06152H118.219C120.819 6.06152 123.185 7.12324 124.899 8.83674C126.604 10.5511 127.675 12.9167 127.675 15.5164V29.3777C127.675 31.986 127.006 34.4439 125.836 36.5839C129.33 36.9434 132.474 38.5153 134.839 40.8809C137.531 43.5726 139.203 47.2931 139.203 51.3892V85.6152H148.792C150.013 85.6152 150.999 86.61 150.999 87.8307V104.484C150.999 105.705 150.013 106.699 148.792 106.699H139.203V142.723C139.203 143.943 138.217 144.938 136.996 144.938H11.1941C9.97337 144.938 8.98716 143.943 8.98716 142.723V89.8205C6.78025 89.3775 4.80693 88.291 3.27717 86.7613C1.25401 84.7375 0 81.937 0 78.8438V70.1247C0 68.9041 0.994772 67.9175 2.21545 67.9175C3.43614 67.9175 4.42235 68.9044 4.42235 70.1247V78.8438C4.42235 80.7166 5.18296 82.4053 6.40364 83.6345C7.63258 84.8632 9.32985 85.6155 11.1941 85.6155H12.0299V56.4395C12.0299 55.2188 13.0249 54.2234 14.2456 54.2234C15.466 54.2234 16.4525 55.2188 16.4525 56.4395V85.6155H41.3239V55.5866C41.3239 54.3659 42.3104 53.38 43.5308 53.38C44.2079 53.38 44.8016 53.6725 45.2109 54.1488L66.4539 75.3664C67.3233 76.2355 68.4437 76.662 69.5806 76.662C70.7512 76.662 71.9382 76.211 72.8829 75.3245L72.9834 75.2328C73.8694 74.3383 74.1702 73.1592 74.0867 72.0308C74.0033 70.8355 73.5349 69.7319 72.8997 69.0545L72.8413 68.9964C63.9128 60.0762 54.9841 51.156 46.0556 42.2358C44.9523 41.1322 43.9236 40.9316 42.4525 40.9316H37.3023C34.6607 43.1724 31.2499 44.5264 27.5295 44.5264C23.8179 44.5264 20.3986 43.1721 17.7567 40.9313V40.9313ZM123.244 25.2232C119.842 25.7496 114.082 25.7912 109.35 21.5446C107.72 22.5226 105.053 23.6513 101.793 23.3165V29.378C101.793 32.329 103.005 35.004 104.953 36.9522C106.892 38.8999 109.576 40.1038 112.519 40.1038C115.47 40.1038 118.153 38.8999 120.093 36.9522C122.041 35.0043 123.244 32.329 123.244 29.378V25.2232ZM101.792 18.8779C104.033 19.2454 106.474 18.4931 108.163 16.9966C109.082 16.203 110.479 16.303 111.273 17.2225C115.186 21.7201 120.653 21.2939 123.244 20.7587V15.5167C123.244 14.1377 122.685 12.8751 121.765 11.9638C120.853 11.0525 119.599 10.4839 118.22 10.4839H106.825C105.445 10.4839 104.191 11.0525 103.272 11.9638C102.36 12.8751 101.792 14.1377 101.792 15.5167V18.8779H101.792ZM16.8038 23.4088C16.8288 24.7717 17.3222 26.0003 18.2834 26.9703C19.203 27.8816 20.457 28.4414 21.8366 28.4414H33.2312C34.6109 28.4414 35.8649 27.8816 36.7762 26.9703C37.6875 26.059 38.2558 24.805 38.2558 23.4253V15.5167C38.2558 14.1377 37.6957 12.8751 36.7762 11.9638C35.8649 11.0525 34.6109 10.4839 33.2312 10.4839H21.8366C20.457 10.4839 19.203 11.0525 18.2834 11.9638C17.3721 12.8751 16.8038 14.1377 16.8038 15.5167V23.4088ZM38.0381 31.5513C36.6252 32.3871 34.9783 32.8723 33.2309 32.8723H21.8366C20.0809 32.8723 18.4424 32.3871 17.0294 31.5513C17.4644 33.6332 18.5007 35.4971 19.9553 36.9519C21.9033 38.8996 24.5868 40.1035 27.5298 40.1035C30.4811 40.1035 33.1643 38.8996 35.104 36.9519C36.5585 35.4971 37.6034 33.6332 38.0381 31.5513V31.5513ZM95.5978 106.699C94.3771 106.699 93.3823 105.705 93.3823 104.484C93.3823 103.263 94.3771 102.277 95.5978 102.277H146.577V90.0382C112.97 90.0382 79.354 90.0382 45.7462 90.0382V102.277H84.9298C86.1505 102.277 87.1456 103.264 87.1456 104.484C87.1456 105.705 86.1505 106.699 84.9298 106.699H45.7462V140.516H134.781V106.699H95.5978ZM45.7462 85.6155H93.4572V60.9117L76.9124 77.4061C74.906 79.4042 72.4148 81.0846 69.5806 81.0846C67.3236 81.0846 65.0831 80.232 63.3442 78.4931L45.7462 60.912V85.6155ZM25.1554 140.516V99.6104C25.1554 98.3898 26.1419 97.4032 27.3626 97.4032C28.5829 97.4032 29.578 98.3901 29.578 99.6104V140.516H41.3239V90.0382H13.4095V140.516H25.1554Z" fill="black" stroke="white" stroke-width="1.6" mask="url(#path-1-inside-1)"/>
</svg>
