<svg xmlns="http://www.w3.org/2000/svg" viewBox="0 0 410 426.9"><path d="M170.8 232.9V68.6c0-17.3 11.9-31 28.8-33.8 20.2-3.3 39 12.1 39.3 32.7.3 22.7.1 45.3.1 68v5c26.6-6.8 37.2-2.9 49.5 18.4 19.1-10.4 40.7-5 51.5 17.2 7.7-4.5 16.1-6.4 24.9-4.6 15.6 3.1 27.3 15.8 27.6 31.8.5 22.8.5 45.7-.2 68.5-.7 24.3-7.8 47.5-14.9 70.6-5.9 19.2-11.5 38.6-16.8 58-1.4 4.9-1.5 10.2-1.9 15.3-.5 7.4-3.8 11.6-9.2 11.3-5.5-.3-8.2-4.5-7.9-12.2.7-17.5 5.9-34 10.9-50.6 6.8-22.6 13.8-45.2 19.6-68 2.5-9.7 3.1-20.1 3.4-30.2.5-19.8.3-39.7.1-59.5-.1-13.4-11.7-21.9-23.3-17.2-7 2.8-10.7 8.3-10.8 15.9-.1 7.8 0 15.7-.1 23.5-.1 6.8-3.2 10.6-8.6 10.6-5.4-.1-8.5-3.9-8.6-10.7v-39c-.1-10.9-6.9-18.4-16.7-18.5-10.2-.1-17.3 7.4-17.4 18.4-.1 7.7 0 15.3 0 23-.1 6-3.4 9.7-8.4 9.7s-8.5-3.8-8.6-9.7c-.1-13.3 0-26.7 0-40 0-11.2-6.9-18.5-17.1-18.5-10.1 0-16.9 7.6-16.9 18.8v39c0 6.4-3.1 10.2-8.3 10.4-5.3.1-8.8-4-8.8-10.5v-142c0-12.4-10-20.5-21.5-17.6-7.6 1.9-12.5 8.5-12.5 17.1-.1 24.5 0 49 0 73.5v119.5c0 5-1 9-6.3 10.6-5 1.5-9-.5-12.3-6-10.2-17.6-20.3-35.2-30.5-52.7-3.8-6.5-9.7-9.6-17.2-8.7-7.1.8-13.1 5.9-14.1 12.9-.6 4.2-.2 9.5 2 12.8 15.7 24.4 25.6 51.1 32.7 79 4.4 17.2 12.5 32.5 22.4 47.1 12.1 17.7 24.2 35.5 36.4 53.2.5.7 1 1.3 1.5 2 3.4 5 2.9 9.8-1.2 12.8s-9.1 2.1-12.5-2.7c-8.1-11.4-16.2-22.8-24.1-34.3-4.1-5.9-7.8-12-11.9-17.9-14.2-20.3-24.6-42.2-30.4-66.3-5.3-22.4-14.3-43.2-26.8-62.6-6.3-9.8-7.8-20.6-3.4-31.5 5.2-12.9 15.1-20.3 28.8-21.5 13.6-1.2 24.5 4.3 31.8 15.9 5.9 9.4 11.3 19.2 16.9 28.8.3-.1.7-.2 1-.2zM380.3 51.3H267.4c-2.1 0-4.5 0-6.3-.8-3.7-1.6-5.4-4.9-4.9-8.9.6-4.4 4.2-7.2 9.4-7.2 12.7-.1 25.3 0 38 0h76.3c-1.5-1.8-2.3-2.9-3.3-3.9-5.2-5.2-10.4-10.3-15.5-15.6-3.3-3.5-3.3-8.5-.4-11.8 3.1-3.4 8.2-4.1 11.7-.8 11.9 11.6 23.7 23.4 35.3 35.4 3.2 3.3 3 7.6-.2 10.9-11.4 11.7-23 23.2-34.6 34.6-3.5 3.4-8.5 3.1-11.7-.1-3.4-3.3-3.5-8.4 0-12.1 4.9-5.2 10.1-10.2 15.2-15.2 1-1.3 2-2.5 3.9-4.5zM29.9 52.6l18.6 18c3.1 3 3.6 6.7 1.5 10.5-2 3.6-5.5 4.9-9.4 3.8-1.7-.4-3.3-1.6-4.6-2.8C25.1 71.5 14.3 60.6 3.5 49.7c-4.7-4.8-4.6-9.1.1-13.9C14.3 25.1 25 14.3 35.7 3.7c4.5-4.5 9.5-4.7 13.2-.9 3.4 3.5 3 8.7-1.1 12.8C42 21.5 36 27.2 29.2 33.9c3.1.2 4.7.3 6.3.3h105c1.5 0 3-.1 4.5.1 5.2.4 8.8 3.9 8.8 8.4.1 4.8-3.7 8.5-9.1 8.6-14.5.1-29 0-43.5 0H30.8c-.3.4-.6.9-.9 1.3z"/></svg>