<svg width="17" height="14" fill="none" xmlns="http://www.w3.org/2000/svg"><path d="M4.996 10.836c-1.61-.175-2.677-.936-3.289-2.42h1.4c.016-.03.032-.06.047-.099C1.498 7.77.585 6.673.461 4.953c.503.137.975.259 1.447.388.024-.03.04-.06.062-.09C1.026 4.503.5 3.56.492 2.372c0-.624.178-1.24.503-1.666C2.9 2.868 5.282 4.093 8.245 4.299a16.787 16.787 0 0 1-.03-.571c-.054-1.5.565-2.656 1.927-3.318 1.354-.662 2.677-.525 3.86.434.264.213.504.274.813.16.55-.206 1.099-.404 1.68-.61-.202.708-.682 1.218-1.231 1.683.015.03.039.06.054.09l1.61-.41.07.068c-.457.457-.89.929-1.37 1.355-.24.213-.333.426-.349.746-.193 4.178-2.066 7.36-6.004 9.08-3.119 1.361-6.252 1.11-9.231-.572-.031-.015-.055-.045-.04-.03.837-.114 1.719-.175 2.57-.365.867-.19 1.648-.617 2.422-1.203z" fill="#A9ACB0"/></svg>